<?xml version="1.0" encoding="utf-8"?>
<!-- Generator: Adobe Illustrator 25.1.0, SVG Export Plug-In . SVG Version: 6.00 Build 0)  -->
<svg version="1.1" id="Layer_1" xmlns="http://www.w3.org/2000/svg" xmlns:xlink="http://www.w3.org/1999/xlink" x="0px" y="0px"
	 viewBox="0 0 1099 649" style="enable-background:new 0 0 1099 649;" xml:space="preserve">
<style type="text/css">
	.st0{fill:#D4BC7F;}
</style>
<g>
	<g>
		<path class="st0" d="M714,1c2.333,0,4.667,0,7,0c-7.764,7.911-15.527,15.823-23.387,23.833c2.906,3.254,5.227,6.224,7.391,7.482
			C716.296,21.597,727.148,11.298,738,1c2.333,0,4.667,0,7,0c-11.754,11.906-23.508,23.813-34.41,34.856
			c13.401,13.397,26.377,26.369,38.914,38.902c12.214-12.197,25.01-24.976,38.172-38.12c-10.054-10.026-20.421-20.322-30.721-30.683
			C755.474,4.466,753.447,3.342,753,1c2,0,4,0,6,0c11.053,10.583,22.106,21.165,33.369,31.949c2.595-2.381,6.049-5.382,9.668-10.319
			C794.283,15.35,786.642,8.175,779,1c2.333,0,4.667,0,7,0c6.534,6.055,13.068,12.111,18.981,17.591
			C810.922,13.096,817.461,7.048,824,1c2,0,4,0,6,0c-6.398,8.192-14.868,14.472-21.488,22.666c3.283,3.737,6.384,7.089,9.052,9.187
			C828.903,22.051,839.952,11.525,851,1c2,0,4,0,6,0c-11.673,11.981-23.346,23.962-34.517,35.428
			c5.116,5.24,9.939,10.181,14.454,14.806c12.942-12.961,26.054-26.092,39.264-39.322C873.01,8.498,869.505,4.749,866,1c2,0,4,0,6,0
			c2.672,2.644,5.021,5.644,8.288,7.82C883.176,6.35,885.858,3.948,888,1c3,0,6,0,9,0c1.669,3.307,4.593,5.383,7.358,7.796
			C907.206,6.305,909.91,3.96,912,1c2,0,4,0,6,0c-2.615,4.406-7.549,6.856-9.53,10.578c13.506,13.5,26.628,26.617,39.316,39.3
			c12.57-12.573,25.569-25.576,38.786-38.796C983.301,8.653,979.65,4.826,976,1c2,0,4,0,6,0c2.801,2.749,5.175,5.977,9.017,8.272
			C993.735,6.456,996.367,3.728,999,1c3.333,0,6.667,0,10,0c2.701,2.831,5.082,6.017,9.398,8.492
			c2.532-2.829,5.067-5.66,7.602-8.492c2,0,4,0,6,0c-3.603,3.857-7.206,7.713-10.397,11.128
			c12.855,12.855,25.518,25.518,39.46,39.461c12.404-12.944,25.17-26.267,37.937-39.59c0,2,0,4,0,6
			c-11.965,12.192-23.93,24.384-36.033,36.716c2.435,3.064,5.033,5.982,9.8,9.125C1081.461,54.615,1090.23,45.307,1099,36
			c0,2,0,4,0,6c-8.054,8.086-16.109,16.172-24.277,24.371C1082.979,74.748,1090.99,82.874,1099,91c0,2,0,4,0,6
			c-9.195-9.001-18.39-18.002-27.023-26.452c-3.796,3.343-7.217,6.356-10.669,9.396C1074.051,92.81,1086.526,105.405,1099,118
			c0,2,0,4,0,6c-13.592-13.436-27.185-26.871-40.298-39.834c-13.342,13.323-26.348,26.31-38.98,38.924
			c13.102,13.077,26.606,26.555,41.073,40.994c0.847-1.186,1.888-3.169,3.401-4.678c11.549-11.521,23.191-22.949,34.804-34.406
			c0,2,0,4,0,6c-11.864,12.232-23.728,24.464-35.816,36.928c2.493,3.255,5.725,6.444,9.692,9.339
			c8.798-8.509,17.461-16.888,26.124-25.267c0,2,0,4,0,6c-7.421,7.746-14.842,15.492-21.495,22.437
			c4.667,4.679,9.614,9.639,14.582,14.621c1.957-1.715,4.435-3.886,6.913-6.057c0,2,0,4,0,6c-1.749,1.192-3.493,2.388-4.283,5.6
			c1.206,0.957,2.745,2.179,4.283,3.4c0,2,0,4,0,6c-3.003-1.938-4.733-5.43-7.384-6.64c-3.277,2.766-6.146,5.187-9.082,7.664
			c2.57,3.702,5.439,6.315,8.6,8.924c2.743-2.423,5.304-4.686,7.866-6.949c0,2,0,4,0,6c-1.709,1.234-3.478,2.418-4.172,5.159
			c1.302,1.199,2.737,2.52,4.172,3.841c0,2,0,4,0,6c-2.55-2.325-5.1-4.65-7.074-6.45c-13.423,13.437-26.611,26.64-40.01,40.053
			c11.297,11.285,23.012,23.081,34.847,34.757c4.005,3.951,7.546,8.406,12.237,11.64c0,2,0,4,0,6
			c-1.927-0.478-2.917-2.144-4.186-3.408c-14.279-14.226-28.514-28.496-42.79-42.726c-1.271-1.267-2.303-2.868-4.383-3.562
			c-3.423,2.956-6.782,6.062-10.171,10.483c14.211,14.142,28.318,28.181,42.983,42.775c-14.172,14.138-28.143,28.074-42.36,42.256
			c3.721,3.072,6.27,7.051,11.435,10.104c1.188-1.61,2.2-3.401,3.598-4.808c13.854-13.945,27.761-27.836,41.688-41.708
			c1.269-1.264,2.257-2.931,4.186-3.406c0,2,0,4,0,6c-0.792,0.576-1.676,1.059-2.361,1.742
			c-14.342,14.306-28.664,28.631-42.976,42.966c-0.681,0.682-1.563,1.294-1.565,1.258c13.259,13.273,25.876,25.903,38.69,38.731
			c2.993-1.265,4.336-5.6,8.212-6.697c0,1.667,0,3.333,0,5c-2.095,1.59-4.081,3.277-5.335,5.679
			c1.497,2.261,3.093,4.109,5.335,5.321c0,2,0,4,0,6c-3.642-1.776-5.416-5.779-9.197-7.786c-3.049,2.493-5.968,5.065-8.227,8.534
			c2.547,3.268,5.258,6.089,8.491,8.471c3.741-1.706,5.275-5.798,8.932-7.22c0,1.667,0,3.333,0,5
			c-2.063,1.625-4.158,3.222-5.276,5.792c1.421,2.178,2.994,4.043,5.276,5.208c0,2,0,4,0,6c-3.718-1.664-5.422-5.747-8.539-7.369
			c-5.519,5.505-10.867,10.84-15.953,15.914c7.968,8.281,16.23,16.868,24.492,25.454c0,1.667,0,3.333,0,5
			c-7.874-5.37-13.56-13.057-20.509-19.408c-2.766-2.529-5.37-5.236-8.135-7.948c-3.939,3.516-7.325,6.606-9.877,9.898
			c13.01,13.326,25.766,26.392,38.521,39.458c0,3.667,0,7.333,0,11c-12.19,12.676-24.38,25.352-36.833,38.301
			c2.636,2.755,5.567,6.308,9.698,9.229c9.11-8.907,18.122-17.718,27.135-26.53c0,2,0,4,0,6
			c-8.567,7.316-16.063,15.691-23.708,23.228c8.135,8.5,15.922,16.636,23.708,24.772c0,1.667,0,3.333,0,5
			c-5.763-3.765-9.915-9.25-14.77-13.974c-4.127-4.015-7.841-8.454-11.456-12.398c-3.969,3.67-6.86,6.343-9.318,8.616
			C1075.46,602.658,1087.23,614.829,1099,627c0,1.667,0,3.333,0,5c-2.083-0.173-3.024-1.942-4.278-3.187
			c-10.289-10.215-20.508-20.5-30.796-30.715c-1.371-1.362-2.431-3.184-3.525-3.458c-13.592,13.559-26.765,26.701-40.166,40.068
			c0.464,1.471,2.338,2.472,3.583,3.985c2.925,3.556,7.229,5.884,9.182,10.306c-1.667,0-3.333,0-5,0
			c-3.534-4.124-7.362-7.937-11.954-11.906c-3.209,4.539-8.324,6.664-10.046,11.906c-2.333,0-4.667,0-7,0
			c-0.633-6.006-6.329-7.564-9.446-11.795c-4.35,4.097-8.336,7.558-11.554,11.795c-2,0-4,0-6,0
			c4.697-4.879,9.395-9.758,13.69-14.219c-14.025-14.027-27.743-27.748-40.664-40.671c-12.595,12.604-25.558,25.578-39.682,39.713
			c5.114,4.659,10.885,9.918,16.656,15.177c-2,0-4,0-6,0c-4.758-4.47-9.515-8.941-14.544-13.667
			c-2.513,2.511-5.593,4.919-7.767,8.188c0.741,2.517,2.985,3.636,4.312,5.479c-2,0-4,0-6,0c-0.508-0.88-1.069-1.688-2.511-1.672
			c-0.422,0.474-0.956,1.073-1.489,1.672c-1.667,0-3.333,0-5,0c0.336-2.309,3.1-2.984,3.597-5.472
			c-2.619-2.96-5.229-6.09-8.084-7.976c-5.044,4.674-9.778,9.061-14.513,13.448c-3.667,0-7.333,0-11,0
			c-8.515-9.975-18.42-18.593-27.405-28.107c-2.711-2.87-5.114-6.03-7.734-9.149c-4.817,3.954-8.131,7.052-11.438,11.484
			c3.638,3.393,7.31,6.506,10.613,9.971c5.004,5.25,10.869,9.691,14.964,15.8c-2,0-4,0-6,0
			c-6.762-8.374-14.945-15.316-22.628-23.345C795.797,633.913,787.434,640.508,781,649c-2,0-4,0-6,0
			c7.619-9.408,17.263-16.915,25.17-26.296c-3.38-3.611-6.345-7.139-10.588-10.132c-7.04,7.069-14.033,13.923-20.828,20.968
			c-4.944,5.126-10.595,9.585-14.754,15.459c-2,0-4,0-6,0c12.893-13.169,25.786-26.338,37.724-38.532
			c-13.342-13.355-26.451-26.478-38.595-38.634c-12.651,12.64-25.899,25.876-39.567,39.532c5.277,5.129,11.246,10.7,16.948,16.531
			c6.854,7.009,14.322,13.427,20.49,21.102c-1.667,0-3.333,0-5,0c-11.994-12.036-23.988-24.071-35.509-35.632
			c-3.474,3.31-6.313,6.015-10.339,9.851c1.942,1.373,4.098,2.464,5.693,4.101C706.892,634.55,714.572,641.167,721,649c-2,0-4,0-6,0
			c-6.809-8.748-15.346-15.759-22.565-23.406C683.968,633.705,675.984,641.353,668,649c-2,0-4,0-6,0
			c8.731-9.014,17.461-18.029,26.283-27.137c-2.767-3.371-5.4-6.266-7.824-7.983C668.122,625.764,656.061,637.382,644,649
			c-2,0-4,0-6,0c10.838-12.168,22.917-23.117,34.215-34.833c1.352-1.402,3.175-2.469,3.437-3.526
			c-5.131-5.224-9.841-10.019-13.941-14.193c-12.829,12.835-25.959,25.971-39.327,39.345c3.946,4.131,8.281,8.669,12.616,13.207
			c-2,0-4,0-6,0c-3.344-3.58-6.688-7.161-10.121-10.836c-4.448,3.811-7.886,7.095-10.879,10.836c-2,0-4,0-6,0
			c-3.212-3.724-6.634-7.222-10.503-10.449c-3.737,3.72-7.117,7.085-10.497,10.449c-2,0-4,0-6,0
			c4.303-4.566,8.605-9.133,12.266-13.018c-13.589-13.603-26.94-26.968-39.439-39.479c-12.409,12.397-25.298,25.274-38.365,38.328
			c4.145,4.339,8.841,9.254,13.537,14.169c-2,0-4,0-6,0c-3.964-3.942-7.927-7.884-11.966-11.901
			c-3.221,2.802-6.039,5.32-8.365,8.614c0.824,1.162,1.577,2.224,2.33,3.287c-4,0-8,0-12,0c0.579-1.304,2.38-1.976,1.928-4.038
			c-2.44-2.602-4.795-5.574-8.089-7.699C476.767,641.3,472.884,645.15,469,649c-2,0-4,0-6,0c4.798-5.017,9.596-10.033,14.01-14.648
			c-12.895-12.895-25.45-25.449-37.45-37.449c-4.858,4.822-10.081,10.007-16.054,15.936c3.457,3.156,7.435,6.461,11.033,10.139
			c8.487,8.674,17.608,16.729,25.461,26.023c-2,0-4,0-6,0c-7.522-9.513-16.96-17.176-25.138-26.052
			c-2.667-2.895-5.033-6.067-7.558-9.139c-4.956,4.104-8.171,7.355-12.094,12.003c1.897,1.445,3.95,2.635,5.531,4.279
			c6.073,6.316,12.886,11.92,18.26,18.908c-1.667,0-3.333,0-5,0c-7.058-6.947-14.116-13.895-21.403-21.068
			c-6.951,7.17-14.284,13.608-20.597,21.068c-2.333,0-4.667,0-7,0c8.298-7.826,16.597-15.653,24.982-23.562
			c-4.105-4.582-7.043-7.877-9.935-9.996C382.186,626.799,370.593,637.9,359,649c-2,0-4,0-6,0c0.306-2.016,2.014-2.993,3.27-4.256
			c9.866-9.931,19.793-19.801,29.659-29.732c1.245-1.253,2.982-2.224,3.052-3.087c-13.806-13.875-27.029-27.164-39.7-39.899
			c-12.829,12.864-26.034,26.105-40.12,40.23C321.437,624.177,334.218,636.588,347,649c-2.333,0-4.667,0-7,0
			c-11.766-11.251-23.532-22.503-35.539-33.985c-1.875,1.896-4.544,4.594-8.36,8.452c9.082,8.62,17.991,17.076,26.9,25.533
			c-2.333,0-4.667,0-7,0c-7.776-7.242-15.551-14.485-23.585-21.968C285.905,633.884,277.86,640.85,271,649c-2,0-4,0-6,0
			c8.41-8.615,16.82-17.231,24.969-25.579c-3.095-3.347-5.765-6.235-8.716-9.427C269.917,625.996,257.719,636.762,247,649
			c-2,0-4,0-6,0c12.343-12.562,24.687-25.125,36.736-37.388c-5.098-5.118-9.937-9.977-14.426-14.484
			c-12.76,12.759-25.7,25.698-38.794,38.791c4.004,4.195,8.244,8.638,12.484,13.082c-2,0-4,0-6,0
			c-3.24-3.453-6.362-7.032-10.471-10.102c-3.22,3.517-6.982,6.205-9.529,10.102c-2.333,0-4.667,0-7,0
			c-3.096-3.585-6.345-7.006-10.229-10.029c-3.566,3.308-7.041,6.295-9.771,10.029c-2,0-4,0-6,0
			c3.759-4.789,8.955-8.299,11.89-12.628c-13.515-13.523-26.644-26.659-39.186-39.208c-12.688,12.679-25.809,25.789-39.873,39.842
			c4.08,3.716,8.624,7.854,13.168,11.993c-2,0-4,0-6,0c-3.097-3.809-6.544-7.239-10.638-10.631
			C104.423,642.31,99.696,643.966,99,649c-2.667,0-5.333,0-8,0c0.831-1.174,1.19-2.312-0.084-3.46
			c-2.41-2.171-4.304-4.919-7.878-6.996C79.737,641.983,76.368,645.491,73,649c-2,0-4,0-6,0c4.337-4.539,8.675-9.078,12.59-13.176
			c-13.403-13.404-26.535-26.536-39.925-39.927c-1.304,0.312-2.345,1.928-3.616,3.194c-10.271,10.223-20.492,20.496-30.775,30.708
			C4.018,631.046,3.069,632.801,1,633c0-1.667,0-3.333,0-5c11.768-12.141,23.536-24.281,35.099-36.211
			c-2.857-3.023-6.006-6.355-10.445-11.051C17.335,589.6,9.168,598.3,1,607c0-2,0-4,0-6c7.925-7.011,15.157-14.693,22.152-21.881
			C15.459,571.091,8.23,563.545,1,556c0-2,0-4,0-6c8.252,8.609,16.504,17.218,24.81,25.884c4.297-3.341,7.316-5.994,9.038-8.815
			C23.335,555.141,12.168,543.571,1,532c0-2,0-4,0-6c12.229,12.642,24.459,25.283,36.234,37.455
			c14.082-14.069,27.067-27.041,39.169-39.131c-12.682-12.687-25.763-25.775-39.835-39.854c-0.777,1.108-1.795,3.118-3.309,4.631
			C22.563,499.791,11.765,510.379,1,521c0-2,0-4,0-6c10.209-8.755,19.119-18.837,28.781-28.153c1.866-1.799,3.589-3.746,5.258-5.498
			c-3.051-3.281-5.728-6.159-9.762-10.498C17.01,479.755,9.005,488.378,1,497c0-2,0-4,0-6c7.954-6.742,14.916-14.451,21.582-21.16
			c-5.304-5.506-10.108-10.493-15.052-15.625C5.439,456.067,3.219,458.034,1,460c0-2,0-4,0-6c1.664-0.742,2.931-1.853,3.502-3.634
			C3.538,448.949,2.488,447.749,1,447c0-2,0-4,0-6c2.567,1.719,4.065,4.74,7.197,6.077c3.566-3.009,6.82-6.18,9.988-10.087
			c-3.437-3.445-6.396-7.11-10.365-9.93C5.43,429.141,3.215,431.071,1,433c0-2,0-4,0-6c1.656-0.589,2.715-1.741,3.281-3.5
			C3.524,422.047,2.432,420.871,1,420c0-1.667,0-3.333,0-5c3.162,0.504,4.006,4.38,5.736,4.717
			c13.921-13.932,27.233-27.254,40.978-41.011c-10.988-10.872-22.508-22.357-34.136-33.731C9.442,340.929,5.792,336.361,1,333
			c0-2,0-4,0-6c1.921,0.49,2.915,2.151,4.185,3.417c14.05,13.997,28.053,28.041,42.105,42.036c1.375,1.369,2.471,3.17,4.839,3.704
			c2.924-2.456,6.022-4.847,8.379-9.177c-14.431-14.293-28.838-28.563-43.495-43.081c14.174-14.127,28.178-28.084,42.264-42.122
			c-2.76-3.707-5.482-6.511-8.998-8.995c-1.426,1.34-2.778,2.546-4.058,3.824c-13.678,13.662-27.335,27.345-41.033,40.988
			C3.919,318.858,2.93,320.526,1,321c0-2,0-4,0-6c0.676-0.461,1.444-0.829,2.013-1.396c14.267-14.238,28.515-28.495,42.751-42.765
			c0.433-0.434,0.693-1.041,0.472-0.7c-12.926-13.022-25.539-25.73-38.26-38.544C5.883,233.516,3.441,235.758,1,238c0-2,0-4,0-6
			c1.487-1.409,3.379-2.489,4.195-5.789C4.066,225.347,2.533,224.174,1,223c0-1.667,0-3.333,0-5c3.141,1.206,4.332,4.971,8.045,6.09
			c3.029-3.29,6.787-5.99,9.449-10.255c-3.289-3.408-6.178-6.933-9.98-9.628C5.888,206.581,3.444,208.79,1,211c0-2,0-4,0-6
			c1.608-1.289,3.422-2.408,3.94-4.645C3.917,198.818,2.985,197.3,1,197c0-2,0-4,0-6c3.074,1.334,4.349,4.978,7.048,5.883
			c5.7-5.761,11.134-11.252,16.631-16.809C17.011,172.278,9.005,164.139,1,156c0-2,0-4,0-6c9.228,9.03,18.456,18.06,27.903,27.303
			c3.012-3.097,6.067-5.39,8.077-8.472C24.906,156.471,12.953,144.236,1,132c0-2,0-4,0-6c13.234,13.016,26.467,26.032,39.121,38.477
			c13.249-13.265,26.13-26.161,38.356-38.401c-12.92-12.919-26.273-26.272-40.792-40.79c-0.946,1.378-2.001,3.585-3.641,5.194
			C23.013,101.304,12.618,112.775,1,123c0-2,0-4,0-6c11.352-11.843,22.704-23.686,34.278-35.761
			c-1.99-2.321-4.501-5.313-8.054-7.571C18.396,82.196,9.698,90.598,1,99c0-2,0-4,0-6c7.45-7.75,14.9-15.499,22.182-23.075
			C15.97,62.471,8.485,54.736,1,47c0-2,0-4,0-6c8.317,9.017,16.635,18.034,25.048,27.154c4.883-4.748,8.442-7.698,11.093-11.424
			C24.968,44.359,12.984,32.179,1,20c0-2,0-4,0-6c13.215,13.032,26.431,26.063,39.119,38.575
			c13.333-13.331,26.326-26.323,39.503-39.499C76.984,8.815,71.476,6.206,69,1c1.667,0,3.333,0,5,0
			c2.844,3.383,5.877,6.568,9.725,9.527C86.592,7.274,90.621,5.37,92,1c2.333,0,4.667,0,7,0c1.53,4.271,5.449,6.305,8.521,9.675
			C111.016,7.412,114.39,4.602,117,1c2,0,4,0,6,0c-3.24,4.993-8.669,8.088-11.375,12.469c13.622,13.647,26.898,26.947,39.796,39.868
			c12.899-12.967,26.132-26.271,40.86-41.076C188.385,8.957,183.692,4.979,179,1c2,0,4,0,6,0c3.177,3.535,6.354,7.071,9.615,10.7
			C198.876,7.512,202.354,4.668,205,1c2.333,0,4.667,0,7,0c3.182,3.349,6.364,6.699,9.673,10.182C225.81,7.835,229.044,4.562,232,1
			c1.667,0,3.333,0,5,0c-2.81,5.311-8.647,8.057-10.972,12.187c13.174,13.178,25.928,25.936,38.137,38.148
			c4.685-4.569,9.874-9.628,15.433-15.049c-6.75-6.717-13.774-13.525-20.581-20.545C254.298,10.875,248.893,6.651,245,1c2,0,4,0,6,0
			c9.963,11.381,21.172,21.508,31.855,32.433c3.521-2.744,6.482-5.272,9.362-10.194c-1.893-1.352-4.213-2.547-5.933-4.323
			C280.512,12.955,274.023,7.681,269,1c2,0,4,0,6,0c6.113,7.335,13.174,13.703,20.401,20.73C301.968,14.351,309.671,8.845,315,1
			c2,0,4,0,6,0c-7.498,7.841-14.997,15.682-22.578,23.609c2.919,3.398,5.455,6.395,8.966,8.674C318.34,22.441,329.17,11.721,340,1
			c1.667,0,3.333,0,5,0c-3.786,5.319-8.875,9.402-13.388,14.026c-6.961,7.131-14.105,14.084-20.539,20.483
			c13.862,13.839,27.324,27.28,40.065,40c12.339-12.352,25.224-25.252,39.07-39.112c-1.324-0.973-3.434-2.13-5.047-3.773
			C374.794,22.062,363.849,12.07,354,1c2,0,4,0,6,0c7.682,9.399,17.003,17.206,25.258,26.046c2.564,2.746,4.886,5.718,7.403,8.685
			c4.396-4.384,7.987-7.311,10.803-11.292C396.289,16.14,387.757,9.407,381,1c2,0,4,0,6,0c5.686,7.574,12.996,13.522,18.824,19.498
			C413.127,13.774,420.063,7.387,427,1c2,0,4,0,6,0c-6.761,8.565-15.6,15.205-22.605,23.812c3.204,3.803,6.288,7.16,9.093,9.264
			C431.218,22.834,442.609,11.917,454,1c2,0,4,0,6,0c-7.401,8.775-15.984,16.396-24.03,24.539
			c-4.061,4.11-8.566,7.781-12.044,10.907c5.932,6.016,10.852,11.005,15.303,15.519c12.704-12.7,25.83-25.822,39.088-39.075
			C474.766,9.159,470.883,5.079,467,1c2,0,4,0,6,0c2.911,3.115,5.688,6.375,9.331,8.952C485.529,7.091,488.685,4.464,491,1
			c2,0,4,0,6,0c2.957,3.083,5.712,6.384,9.38,8.968C509.544,7.1,512.75,4.523,515,1c2,0,4,0,6,0
			c-3.177,4.589-8.302,7.497-10.845,11.897C523.282,26.002,536.07,38.77,548.41,51.09c12.78-12.771,25.878-25.861,39.188-39.161
			C585.293,8.121,580.214,5.777,578,1c1.667,0,3.333,0,5,0c2.549,2.978,5.172,5.877,8.518,8.241C594.847,6.883,597.494,4.016,600,1
			c3.333,0,6.667,0,10,0c2.46,3.047,5.111,5.891,8.434,8.21C621.81,6.859,624.369,3.891,627,1c2,0,4,0,6,0
			c-3.705,3.932-7.409,7.864-10.554,11.202c13.64,13.652,26.87,26.893,39.549,39.583c4.98-4.973,10.328-10.314,16.076-16.053
			c-6.801-6.753-14.077-13.791-21.128-21.048C652.569,10.183,647.508,6.32,644,1c2,0,4,0,6,0
			c9.915,11.341,21.098,21.407,31.883,32.488c3.087-3.17,6.283-5.475,9.054-10.108c-1.846-1.43-4.036-2.742-5.742-4.519
			C679.472,12.9,672.992,7.663,668,1c2,0,4,0,6,0c6.001,7.259,13.059,13.45,19.122,19.58C700.306,13.843,707.153,7.421,714,1z
			 M246.921,578.489c-17.993-17.973-36.339-36.299-55.582-55.521c18.192-18.184,36.38-36.362,54.179-54.153
			c-13.063-13.055-26.113-26.098-40.075-40.051c-17.7,17.762-35.724,35.849-54.482,54.672c-18.67-18.688-37.22-37.257-54.956-55.01
			c-13.289,13.288-26.653,26.652-40.979,40.978c18.056,18.049,36.605,36.592,55.982,55.962
			c-18.199,18.169-36.544,36.483-54.525,54.434c13.083,13.077,26.239,26.227,40.118,40.099c18.174-18.268,36.8-36.99,55.651-55.938
			c18.422,18.443,36.65,36.692,54.564,54.627C220.164,605.242,233.203,592.205,246.921,578.489z M453.907,70.135
			c18.249,18.244,36.8,36.788,56.08,56.062c-18.244,18.187-36.602,36.488-54.365,54.196c13.026,13.008,26.026,25.99,39.85,39.796
			c17.783-18.045,36.077-36.609,55.185-55.999c18.797,18.807,37.221,37.241,55.004,55.034
			c13.143-13.109,26.281-26.215,40.354-40.252c-17.922-17.913-36.243-36.226-55.255-55.229
			c17.92-17.861,36.051-35.933,53.669-53.493c-13.241-13.28-26.465-26.543-40.396-40.516
			c-17.771,17.804-35.931,35.997-54.725,54.825c-18.595-18.68-36.891-37.06-54.8-55.051
			C481.293,42.732,468.147,55.885,453.907,70.135z M405.147,419.246c13.858-13.866,26.996-27.011,40.686-40.708
			c-17.837-17.774-36.211-36.085-55.093-54.9c18.517-18.391,36.893-36.641,54.716-54.342
			c-13.438-13.504-26.436-26.566-39.959-40.155c-17.894,17.96-36.079,36.212-55.114,55.317
			c-18.729-18.803-37.226-37.375-55.448-55.67c-13.178,13.175-26.12,26.114-39.823,39.814
			c18.321,18.299,36.995,36.949,56.328,56.259c-18.561,18.431-36.97,36.709-54.988,54.601c13.268,13.27,26.418,26.424,40.297,40.306
			c17.737-17.848,36.013-36.238,54.389-54.729C369.443,383.41,387.646,401.68,405.147,419.246z M693.457,418.135
			c18.027-18.105,36.29-36.447,55.325-55.563c18.804,18.842,37.331,37.406,55.124,55.236c13.162-13.159,26.309-26.304,40.314-40.305
			c-18.079-17.872-36.609-36.191-55.424-54.79c18.542-18.522,36.79-36.75,54.755-54.695c-12.906-12.904-25.596-25.592-38.927-38.92
			c-17.957,18.072-36.227,36.458-54.728,55.077c-19.046-19.174-37.911-38.167-56.331-56.712
			c-13.683,13.7-26.821,26.853-40.775,40.824c18.512,18.289,37.391,36.942,56.6,55.92c-18.686,18.664-36.934,36.89-54.981,54.916
			C667.304,392.005,680.011,404.701,693.457,418.135z M603.849,428.518c-17.836,17.899-35.961,36.089-55.02,55.216
			c-18.904-18.909-37.573-37.582-55.537-55.552c-12.916,12.901-26.039,26.009-40.011,39.963
			c18.484,18.471,37.406,37.379,57.144,57.104c-18.295,18.267-36.747,36.692-54.581,54.498
			c12.526,12.55,25.072,25.121,38.223,38.298c18.012-18.069,36.412-36.527,55.694-55.871c18.733,18.746,37.151,37.177,54.96,54.998
			c13.133-13.122,26.28-26.258,40.195-40.162c-18.183-18.146-36.759-36.683-56.366-56.25c18.114-18.1,36.188-36.159,53.664-53.621
			C629.796,454.639,617.274,442.034,603.849,428.518z M947.587,482.828c-19.057-19.275-37.721-38.154-55.977-56.619
			c-13.559,13.537-26.714,26.67-40.505,40.439c18.284,18.237,36.866,36.77,56.384,56.238
			c-18.613,18.594-37.039,37.002-54.551,54.496c12.669,12.688,25.314,25.352,38.496,38.553
			c17.732-17.815,36.024-36.191,55.178-55.434c19.013,19.025,37.769,37.792,56.081,56.116c13.299-13.293,26.453-26.441,40.21-40.192
			c-18.318-18.146-36.971-36.624-56.204-55.677c18.431-18.413,36.517-36.482,54.018-53.965
			c-12.924-12.944-25.555-25.594-38.579-38.638C984.543,445.781,966.475,463.894,947.587,482.828z M1044.093,178.507
			c-18.536-18.498-37.131-37.054-56.333-56.217c18.099-18.088,36.193-36.169,53.443-53.409
			c-12.828-12.826-25.468-25.463-38.97-38.963c-17.47,17.515-35.536,35.629-54.315,54.457
			c-18.566-18.703-37.187-37.462-55.447-55.856c-13.246,13.266-26.367,26.408-40.158,40.22
			c18.577,18.558,37.513,37.475,57.145,57.086c-18.51,18.368-37.023,36.738-54.566,54.146c12.917,12.917,25.552,25.552,38.83,38.83
			c17.7-17.723,36.03-36.076,55.129-55.2c18.416,18.451,36.826,36.897,55.015,55.12
			C1017.07,205.522,1030.132,192.464,1044.093,178.507z M58.718,181.401c12.654,12.669,25.293,25.323,38.796,38.843
			c17.869-18.075,36.188-36.606,55.573-56.214c18.686,18.716,37.086,37.146,54.778,54.867c12.769-12.736,25.701-25.634,39.532-39.43
			c-18.032-17.976-36.462-36.348-55.7-55.525c18.403-18.345,36.631-36.515,54.438-54.266c-12.63-12.661-25.305-25.368-38.825-38.922
			c-18.018,18.045-36.304,36.36-55.542,55.627c-18.865-18.902-37.64-37.713-55.77-55.878C83.102,43.367,70.088,56.35,56.141,70.264
			c18.488,18.475,37.395,37.369,56.921,56.881C94.864,145.314,76.511,163.637,58.718,181.401z M222.977,377.904
			c-17.83-17.739-35.975-35.791-54.716-54.436c18.521-18.469,36.517-36.414,54.114-53.962c-4.981-5.083-9.821-10.021-15.045-15.35
			c-17.751,17.813-35.683,35.809-54.715,54.908c-19.24-19.294-38.099-38.205-56.485-56.643
			c-5.337,5.275-10.739,10.614-16.559,16.367c18.596,18.538,37.405,37.289,56.648,56.472
			c-18.908,18.881-37.239,37.185-54.991,54.911c5.356,5.414,10.293,10.404,16.115,16.288c17.946-17.984,36.226-36.303,55.096-55.213
			c17.956,18.045,35.886,36.063,53.455,53.719C211.673,389.191,217.162,383.71,222.977,377.904z M278.72,68.563
			c19.156,19.043,38.131,37.905,57.938,57.595c-19.039,18.993-37.852,37.762-56.057,55.923c4.829,4.856,9.683,9.739,15.256,15.344
			c18.46-18.473,37.222-37.247,56.96-56.998c18.149,18.179,36.208,36.268,53.676,53.765c4.982-4.944,10.12-10.042,16.268-16.142
			c-17.765-17.692-35.857-35.709-54.575-54.35c17.965-17.917,35.842-35.747,53.438-53.296c-5.029-5.072-9.899-9.983-14.951-15.078
			c-17.718,17.846-35.634,35.892-54.394,54.788c-19.59-19.711-38.541-38.779-57.368-57.723
			C289.648,57.648,284.596,62.694,278.72,68.563z M621.847,377.741c-18.311-18.34-36.523-36.581-55.559-55.647
			c18.129-18.044,36.01-35.841,53.264-53.014c-4.938-4.886-9.716-9.613-15.439-15.275c-17.382,17.48-35.183,35.382-53.933,54.237
			c-18.716-18.739-37.478-37.524-55.435-55.504c-5.201,5.153-10.332,10.237-15.968,15.821c18.419,18.358,37.26,37.136,56.764,56.576
			c-19.047,18.935-37.803,37.579-55.895,55.564c4.792,4.957,9.452,9.777,14.359,14.853c18.25-18.324,36.693-36.841,55.757-55.981
			c18.695,18.712,37.012,37.046,55.123,55.173C610.513,388.968,615.938,383.595,621.847,377.741z M748.944,537.278
			c18.512,18.584,36.572,36.714,54.322,54.533c5.281-5.276,10.414-10.406,16.24-16.227c-17.811-17.758-35.912-35.804-54.947-54.781
			c18.289-18.276,36.242-36.215,53.523-53.483c-4.629-4.791-9.223-9.546-14.376-14.88c-17.643,17.711-35.452,35.588-53.885,54.092
			c-19.312-19.428-38.296-38.527-56.8-57.143c-5.694,5.696-11.148,11.153-16.949,16.956c18.735,18.709,37.803,37.75,57.809,57.728
			c-19.119,18.863-37.915,37.408-56.149,55.399c4.804,4.951,9.405,9.693,14.363,14.804
			C710.702,575.621,729.474,556.8,748.944,537.278z M1002.079,393.852c6.017-5.972,11.305-11.22,16.808-16.682
			c-17.88-17.796-36.017-35.849-54.673-54.418c18.658-18.611,36.654-36.562,54.435-54.298c-5.096-5.159-9.956-10.08-15.152-15.34
			c-17.861,17.929-35.803,35.94-54.085,54.292c-19.337-19.354-38.241-38.276-56.793-56.845c-5.546,5.477-10.705,10.572-16.191,15.99
			c18.737,18.712,37.672,37.622,57.175,57.099c-19.163,19.065-37.912,37.717-56.418,56.127c4.956,4.941,9.731,9.701,15.283,15.236
			c18.152-18.17,36.685-36.721,55.436-55.492C966.122,357.792,984.207,375.928,1002.079,393.852z M279.071,468.555
			c18.308,18.274,36.891,36.823,55.978,55.874c-18.966,18.85-37.55,37.321-55.38,55.041c5.199,5.523,9.827,10.44,14.9,15.83
			c18.529-18.621,37.059-37.243,56.092-56.37c18.592,18.759,36.832,37.163,54.794,55.287c5.761-5.756,10.897-10.887,16.825-16.809
			c-18.14-18.112-36.571-36.514-55.917-55.829c18.047-17.976,35.934-35.792,53.567-53.355c-4.515-4.616-9.12-9.323-14.029-14.342
			c-17.615,17.701-35.308,35.48-53.648,53.911c-19.189-19.291-37.828-38.028-55.991-56.289
			C290.531,457.188,285.021,462.653,279.071,468.555z M803.415,54.145c-17.572,17.602-35.413,35.473-53.964,54.056
			c-18.365-18.402-36.789-36.863-54.84-54.951c-5.376,5.417-10.689,10.771-16.621,16.749c18.226,18.189,36.81,36.733,55.548,55.433
			c-18.682,18.615-37.178,37.044-54.846,54.648c5.391,5.44,10.222,10.314,15.9,16.043c18.127-18.206,36.742-36.902,56.184-56.429
			c18.278,18.337,36.573,36.69,54.214,54.388c5.088-5.032,10.226-10.115,15.893-15.72c-17.996-17.983-36.34-36.315-55.31-55.272
			c18.098-17.919,36.056-35.698,53.83-53.296C814.189,64.691,809.245,59.852,803.415,54.145z M262.489,164.717
			c13.196-13.211,26.442-26.471,38.809-38.851c-13.084-13.085-26.541-26.543-39.245-39.248
			c-12.667,12.673-25.904,25.914-38.833,38.848C236,138.24,249.278,151.512,262.489,164.717z M698.899,523.872
			c-13.454-13.427-27.068-27.013-40.145-40.064c-12.675,12.654-25.792,25.749-38.077,38.013
			c13.153,13.151,26.737,26.732,40.114,40.105C673.301,549.433,686.359,536.394,698.899,523.872z M1018.32,520.597
			c13.474,13.476,27.063,27.065,40.018,40.022c12.638-12.59,25.783-25.686,38.022-37.879c-13.213-13.239-26.784-26.838-40.03-40.111
			C1043.843,495.101,1030.807,508.122,1018.32,520.597z M102,325.261c-13.048-13.018-26.449-26.388-39.29-39.199
			c-12.634,12.631-25.642,25.636-37.766,37.758c12.899,12.901,26.261,26.266,39.257,39.265
			C76.54,350.738,89.443,337.826,102,325.261z M860.259,284.416c-13.223,13.235-26.427,26.453-38.925,38.962
			c12.536,12.602,25.741,25.876,38.473,38.675c12.849-12.82,26.08-26.022,39.171-39.083
			C886.045,310.092,872.741,296.845,860.259,284.416z M709.257,211.479c13.085,13.09,26.444,26.454,39.292,39.305
			c12.786-12.742,25.935-25.845,38.576-38.443c-12.997-12.976-26.334-26.29-39.386-39.321
			C735.086,185.665,721.946,198.797,709.257,211.479z M422.793,323.811c13.105,13.16,26.314,26.424,39.056,39.22
			c12.819-12.801,26.044-26.007,38.563-38.508c-12.978-12.996-26.322-26.359-39.077-39.133
			C448.614,298.071,435.464,311.179,422.793,323.811z M350.619,174.302c-12.981,12.987-26.305,26.316-38.687,38.702
			c12.429,12.438,25.433,25.451,37.964,37.991c12.68-12.713,25.901-25.968,38.698-38.798
			C375.963,199.592,362.918,186.574,350.619,174.302z M946.564,372.075c-12.935,12.938-25.949,25.954-38.643,38.651
			c12.639,12.568,25.83,25.685,38.433,38.218c12.733-12.734,25.853-25.856,38.548-38.551
			C972.239,397.736,959.083,384.587,946.564,372.075z M748.581,473.036c12.784-12.738,25.575-25.482,37.686-37.549
			c-13.094-13.124-26.592-26.653-39.647-39.738c-12.396,12.402-25.169,25.18-37.62,37.636
			C722.083,446.492,735.579,460.011,748.581,473.036z M946.807,197.116c-12.517,12.47-25.429,25.334-37.627,37.485
			c12.948,12.948,26.297,26.297,38.811,38.812c12.351-12.358,25.239-25.253,37.543-37.564
			C972.793,223.107,959.52,209.831,946.807,197.116z M151.926,274.788c12.553-12.457,25.496-25.3,37.527-37.239
			c-13.035-13.038-26.379-26.386-39.219-39.229c-12.22,12.196-25.032,24.982-37.404,37.33
			C125.759,248.593,139.021,261.869,151.926,274.788z M549.907,275.099c12.67-12.582,25.605-25.426,37.943-37.678
			c-13.072-13.086-26.424-26.453-39.134-39.176c-12.456,12.439-25.355,25.32-37.858,37.806
			C523.671,248.863,536.931,262.123,549.907,275.099z M587.176,411.963c-13.055-13.082-26.193-26.246-38.976-39.055
			c-12.675,12.69-25.683,25.715-38.001,38.048c12.846,12.841,26.067,26.057,39,38.984
			C561.564,437.574,574.487,424.651,587.176,411.963z M834.617,559.833c12.624-12.585,25.631-25.551,37.934-37.816
			c-12.636-12.691-25.713-25.824-38.509-38.674c-12.56,12.502-25.518,25.402-38.024,37.851
			C808.988,534.178,822.105,547.308,834.617,559.833z M262.516,485.664c-12.966,12.976-25.952,25.973-38.614,38.645
			c12.678,12.671,25.823,25.809,38.25,38.23c12.733-12.72,25.847-25.822,38.678-38.641
			C288.258,511.353,275.207,498.329,262.516,485.664z M475.995,125.101c-12.796-12.825-25.906-25.965-38.52-38.608
			c-12.605,12.568-25.637,25.563-37.867,37.758c12.787,12.79,25.898,25.906,38.554,38.565
			C450.551,150.466,463.47,137.587,475.995,125.101z M661.58,87.151c-12.874,12.907-25.842,25.909-38.158,38.257
			c12.458,12.504,25.555,25.648,38.171,38.31c12.683-12.656,25.721-25.667,38.31-38.229
			C687.076,112.657,673.949,99.525,661.58,87.151z M996.643,322.683c12.612,12.628,25.62,25.651,38.248,38.294
			c12.572-12.525,25.487-25.391,38.115-37.972c-12.763-12.712-25.801-25.698-38.44-38.287
			C1022.039,297.26,1009.141,310.172,996.643,322.683z M200.716,323.176c12.756,12.781,25.852,25.903,38.205,38.281
			c12.409-12.415,25.293-25.306,37.451-37.47c-12.518-12.525-25.521-25.536-38.186-38.208
			C225.74,298.201,212.828,311.088,200.716,323.176z M436.547,484.903c-12.706,12.667-25.599,25.522-38.153,38.038
			c12.897,12.889,26.191,26.173,38.674,38.647c12.644-12.625,25.538-25.501,38.09-38.034
			C462.553,510.937,449.395,497.765,436.547,484.903z M835.298,85.995c-12.554,12.412-25.509,25.219-37.596,37.169
			c13.151,13.146,26.512,26.502,38.988,38.974c12.263-12.24,25.063-25.016,37.434-37.363
			C861.362,112.029,848.102,98.784,835.298,85.995z M637.266,361.47c12.623-12.538,25.331-25.162,37.467-37.217
			c-12.942-12.975-26.156-26.224-38.825-38.926c-12.415,12.295-25.238,24.994-37.628,37.264
			C611.226,335.502,624.395,348.635,637.266,361.47z M150.257,374.11c-12.588,12.595-25.453,25.467-37.755,37.776
			c12.51,12.554,25.501,25.591,37.969,38.102c12.576-12.511,25.48-25.348,37.998-37.802
			C175.81,399.572,162.787,386.595,150.257,374.11z M350.593,473.986c12.58-12.586,25.225-25.238,37.359-37.377
			c-12.635-12.641-25.756-25.767-38.639-38.656c-12.285,12.286-24.962,24.964-37.342,37.345
			C324.845,448.194,337.96,461.331,350.593,473.986z M105.547,126.362C87.811,108.619,69.96,90.76,51.896,72.688
			c-2.489,2.995-6.396,5.604-9.436,10.486c14.515,14.288,28.961,28.508,43.787,43.101c-14.168,14.121-28.157,28.063-42.255,42.115
			c3.543,3.684,6.537,7.196,9.936,9.709C71.527,160.459,88.797,143.151,105.547,126.362z M275.679,576.992
			c17.865-17.872,35.282-35.298,52.247-52.27c-17.484-17.491-35.207-35.221-53.073-53.095c-2.937,2.772-6.492,5.74-9.677,10.291
			c14.245,14.046,28.434,28.038,43.191,42.59c-14.552,14.402-28.596,28.301-42.762,42.32
			C268.909,570.895,272.136,574.142,275.679,576.992z M674.082,72.409c-3.178,2.91-6.682,6.073-10.428,10.936
			c14.379,14.263,28.506,28.277,43.63,43.279c-14.186,13.884-28.3,27.696-42.555,41.647c3.486,3.586,6.389,7.183,9.671,9.418
			c17.793-17.81,35.283-35.316,52.469-52.518C709.616,107.926,691.969,90.287,674.082,72.409z M450.614,177.425
			c17.897-17.92,35.274-35.321,52.178-52.247c-17.242-17.267-34.829-34.879-52.594-52.67c-3.04,2.658-6.419,5.763-9.914,10.312
			c14.353,13.947,28.621,27.812,43.654,42.419c-14.733,14.505-28.792,28.347-42.529,41.872
			C444.692,170.792,447.665,174.122,450.614,177.425z M110.001,325.882c-14.506,14.423-28.388,28.226-42.424,42.181
			c2.795,3.625,6.113,6.801,9.344,9.5c17.588-17.595,34.984-34.998,51.467-51.488c-17.582-17.594-35.504-35.528-53.612-53.648
			c-2.608,2.602-6.274,5.411-8.976,9.643C80.258,296.401,94.546,310.563,110.001,325.882z M41.423,481.593
			c14.238,14.158,28.342,28.182,43.284,43.039c-14.465,14.188-28.545,27.998-42.743,41.924c3.545,3.642,6.454,7.255,9.856,9.549
			c17.659-17.659,35.044-35.043,51.931-51.929c-17.235-17.267-34.816-34.879-52.624-52.719
			C48.429,474.276,45.346,477.496,41.423,481.593z M899.75,522.326c-17.367-17.364-34.966-34.961-52.78-52.772
			c-2.681,2.848-6.387,5.651-9.593,10.346c14.146,14.082,28.244,28.117,43.197,43.003c-14.194,14.13-28.168,28.04-42.258,42.065
			c3.24,3.279,6.167,6.861,9.657,9.306C865.574,556.614,882.839,539.292,899.75,522.326z M303.809,324.112
			c-17.326-17.327-34.821-34.823-52.513-52.516c-3.083,2.641-6.411,5.776-9.799,10.115c14.247,14.128,28.374,28.135,42.908,42.548
			c-14.27,14.236-28.243,28.176-42.323,42.223c3.464,3.6,6.46,7.108,9.839,9.614C269.51,358.476,286.774,341.179,303.809,324.112z
			 M701.279,324.578c-17.472-17.485-35.155-35.18-53.038-53.077c-2.513,2.583-5.624,5.78-9.398,9.659
			c14.374,14.257,28.739,28.505,43.602,43.247c-14.008,13.94-27.766,27.631-41.402,41.2c3.364,3.623,6.468,6.966,9.251,9.963
			C667.683,358.179,684.837,341.023,701.279,324.578z M906.41,323.51c-14.598,14.556-28.928,28.845-43.394,43.269
			c3.289,3.845,6.434,7.184,9.782,9.78c17.946-17.961,35.679-35.71,52.837-52.884c-17.57-17.573-35.427-35.433-53.555-53.564
			c-3.055,2.536-6.397,5.598-9.575,9.94C877.122,294.519,891.53,308.781,906.41,323.51z M275.876,178.303
			c17.7-17.711,35.442-35.465,52.547-52.58c-17.491-17.505-35.437-35.466-53.564-53.609c-2.905,2.447-6.139,5.481-9.459,9.858
			c14.687,14.296,29.313,28.534,44.441,43.259c-15.001,14.938-29.351,29.229-43.91,43.727
			C269.436,172.252,272.677,175.298,275.876,178.303z M464.415,281.105c14.614,14.333,29.18,28.619,44.526,43.67
			c-14.832,14.767-29.171,29.043-43.642,43.45c3.199,3.389,6.145,6.932,9.231,9.08c18.041-18.039,35.768-35.763,52.703-52.697
			c-17.455-17.459-35.302-35.311-53.336-53.349C471,273.644,467.8,276.716,464.415,281.105z M672.962,575.998
			c17.942-17.941,35.527-35.525,52.465-52.461c-17.701-17.694-35.77-35.755-54.026-54.003c-2.891,2.476-6.156,5.453-9.447,9.993
			c14.771,14.522,29.515,29.019,44.884,44.13c-14.727,14.636-28.858,28.681-43.122,42.857
			C666.491,570.214,669.778,573.205,672.962,575.998z M849.118,176.391c17.725-17.724,34.98-34.978,51.868-51.866
			c-17.188-17.183-34.942-34.932-52.68-52.665c-2.843,2.769-6.019,5.863-9.678,9.428c14.655,14.58,29.118,28.969,43.752,43.528
			c-14.406,14.371-28.399,28.33-41.996,41.894C843.81,170.508,846.789,173.81,849.118,176.391z M483.9,523.687
			c-14.783,14.696-28.795,28.626-42.549,42.299c3.414,3.652,6.446,6.896,8.714,9.322c17.573-17.57,34.915-34.911,51.804-51.797
			c-17.157-17.154-34.914-34.906-52.474-52.462c-2.846,2.717-6.058,5.784-9.338,8.915
			C454.588,494.456,468.947,508.775,483.9,523.687z M902.844,628.92c14.042-14.157,27.834-28.062,42.396-42.744
			c14.809,15.073,29.436,29.96,44.173,44.959c3.751-3.711,7.378-6.605,9.649-9.977c-18.036-17.971-35.793-35.665-52.638-52.45
			c-17.065,17.013-34.541,34.437-52.193,52.036C896.093,623.118,898.724,625.813,902.844,628.92z M99.563,25.291
			c18.222,18.223,36.065,36.067,53.465,53.468c16.844-16.849,34.091-34.101,51.594-51.61c-2.744-3.112-5.945-6.545-10.784-10.37
			c-14.45,14.506-28.594,28.704-43.679,43.846c-14.182-14.209-28.471-28.525-42.844-42.924
			C104.347,19.978,101.741,22.735,99.563,25.291z M999.267,423.43c-2.605-3.137-5.799-6.418-10.448-10.087
			c-14.215,14.256-28.372,28.454-43.397,43.523c-14.04-14.388-28.06-28.754-42.207-43.251c-3.36,3.014-6.529,5.346-8.043,8.209
			c17.992,17.993,35.613,35.616,52.847,52.851C964.774,457.921,981.911,440.785,999.267,423.43z M748.561,370.492
			c-17.176,17.18-34.41,34.418-51.053,51.065c2.094,2.231,4.773,5.085,8.275,8.816c13.636-13.7,27.322-27.45,41.947-42.144
			c14.469,14.571,28.945,29.149,42.661,42.962c3.585-3.143,7.031-6.163,10.047-8.807
			C782.781,404.722,765.277,387.213,748.561,370.492z M602.077,224.503c-17.829-17.799-35.218-35.158-51.984-51.894
			c-16.951,16.942-34.33,34.31-51.947,51.918c1.996,2.575,4.499,5.547,8.684,8.01c13.852-13.957,27.664-27.875,41.628-41.945
			c14.639,14.692,29.059,29.163,43.645,43.801C595.904,230.624,599.068,227.487,602.077,224.503z M505.889,631.102
			c14.166-14.228,28.058-28.18,42.165-42.348c14.358,14.445,28.649,28.822,42.539,42.796c3.899-3.427,7.349-6.46,10.372-9.118
			c-17.709-17.683-35.079-35.028-52.051-51.975c-16.879,16.812-34.276,34.139-51.883,51.677
			C498.862,624.975,501.781,627.397,505.889,631.102z M152.56,571.543c-17.504,17.506-35.09,35.093-52.739,52.744
			c2.067,2.15,4.695,4.883,8.191,8.519c14.415-14.492,28.549-28.7,43.313-43.542c14.241,14.393,28.358,28.659,42.615,43.068
			c3.839-3.309,7.238-6.348,9.712-9.735C186.23,605.188,169.067,588.038,152.56,571.543z M150.448,190.179
			c14.995,15.035,29.308,29.386,43.745,43.861c3.788-3.449,7.239-6.493,9.669-9.756c-17.586-17.564-34.951-34.907-51.909-51.844
			c-16.9,16.866-34.274,34.206-51.868,51.765c2.003,2.805,4.726,5.571,8.575,8.285C122.523,218.453,136.283,204.52,150.448,190.179z
			 M948.385,171.486c-17.201,17.17-34.57,34.509-52.212,52.12c2.339,2.199,4.505,5.541,9.112,7.942
			c13.726-13.822,27.521-27.714,41.661-41.954c14.425,14.497,28.809,28.954,43.301,43.519c3.79-3.685,7.311-6.669,9.843-10.089
			C982.474,205.464,965.171,188.217,948.385,171.486z M306.753,607.98c14.416-14.446,28.568-28.628,43.943-44.035
			c14.327,14.379,28.582,28.685,42.943,43.098c2.932-2.926,6.082-6.071,8.577-8.561c-17.607-17.608-35.044-35.044-52.205-52.206
			c-17.1,17.111-34.731,34.753-52.532,52.565C299.669,601.729,302.553,604.413,306.753,607.98z M350.507,277.096
			c17.316-17.322,34.575-34.588,52.019-52.039c-2.626-2.968-5.682-6.394-9.967-9.562c-14.27,14.356-28.429,28.601-43.678,43.942
			c-14.39-14.603-28.342-28.761-42.38-43.006c-3.156,2.88-6.288,5.294-8.188,8.479C315.984,242.576,333.409,259.999,350.507,277.096
			z M547.814,457.928c-14.32-14.365-28.566-28.655-42.882-43.017c-3.035,2.854-6.019,5.218-7.553,7.668
			c17.991,17.98,35.695,35.673,52.702,52.67c16.51-16.498,33.526-33.501,50.773-50.735c-2.408-3.16-5.735-6.298-9.995-9.888
			C576.706,428.863,562.664,442.989,547.814,457.928z M946.906,59.267c-14.605-14.698-28.747-28.929-43.117-43.39
			c-2.726,2.924-5.87,5.118-7.278,7.45c18.034,18.016,35.74,35.705,52.415,52.365c16.437-16.415,33.454-33.409,50.705-50.636
			c-2.578-2.545-5.743-5.669-9.469-9.346C975.964,30.006,961.918,44.15,946.906,59.267z M800.845,448.742
			c-2.939-3.465-6.07-6.791-10.775-10.435c-13.88,13.932-27.673,27.776-42.493,42.652c-14.526-14.65-29.001-29.248-43.171-43.538
			c-2.764,2.525-5.546,5.066-7.968,7.278c18.259,18.248,36.357,36.337,54.242,54.212
			C766.984,482.605,783.695,465.894,800.845,448.742z M350.461,84.372c-14.981-15.117-29.332-29.597-43.754-44.15
			c-2.937,2.686-5.844,5.13-7.639,7.804c18.144,18.132,36.08,36.057,53.441,53.407c16.476-16.501,33.379-33.429,50.533-50.608
			c-2.686-2.994-5.725-6.413-9.801-9.44C379.209,55.485,365.388,69.373,350.461,84.372z M895.955,246.257
			c18.221,18.202,36.079,36.041,53.376,53.319c16.534-16.534,33.451-33.452,50.636-50.637c-2.655-3.032-5.726-6.407-10.37-9.911
			c-14.032,14.085-27.943,28.049-42.511,42.672c-14.343-14.588-28.544-29.031-42.888-43.621
			C900.887,240.715,898.228,243.383,895.955,246.257z M549.631,76.618c17.06-17.065,34.182-34.191,51.46-51.475
			c-2.669-2.819-5.599-6.366-10.141-9.503c-14.156,14.206-28.219,28.32-42.845,42.998c-13.911-14.039-27.776-28.032-41.76-42.145
			c-3.499,3.121-6.653,5.462-8.385,8.709C515.543,42.697,532.851,59.92,549.631,76.618z M947,363.671
			c14.665,14.729,28.813,28.937,43.116,43.302c3.153-3.127,6.897-5.859,9.006-9.48c-17.484-17.47-34.652-34.626-51.078-51.039
			c-17.296,17.274-34.906,34.864-52.671,52.606c2.08,2.506,4.746,5.412,8.409,8.087C917.807,393.037,931.755,379.007,947,363.671z
			 M99.462,423c17.866,17.854,35.459,35.436,52.309,52.275c16.57-16.538,33.573-33.509,50.747-50.651
			c-2.45-2.845-5.461-6.104-9.619-9.23c-13.895,14.144-27.724,28.219-42.23,42.985c-14.652-15.013-28.63-29.335-42.485-43.531
			C104.585,418.211,101.815,420.8,99.462,423z M549.986,283.28c-15.035-15.165-29.266-29.519-43.603-43.98
			c-3.53,2.636-6.373,5.291-8.295,8.123c18.126,18.098,35.978,35.923,52.897,52.816c16.545-16.498,33.558-33.463,50.737-50.594
			c-2.624-2.775-5.477-6.391-9.755-9.114C578.199,254.552,564.577,268.423,549.986,283.28z M153.28,300.556
			c16.598-16.609,33.508-33.531,50.666-50.7c-2.72-2.926-5.663-6.438-10.669-9.918c-13.919,14.034-27.789,28.018-42.8,43.152
			c-14.326-14.437-28.562-28.783-43.004-43.336c-2.568,2.51-5.566,4.816-7.352,7.558
			C118.157,265.375,135.884,283.131,153.28,300.556z M150.433,365.718c14.8,14.88,28.737,28.892,42.812,43.043
			c3.515-3.089,6.887-6.215,9.352-9.381c-17.365-17.32-34.508-34.42-51.132-51.001c-16.942,16.938-34.334,34.328-51.97,51.96
			c2.428,2.401,4.874,5.513,8.574,8.043C121.938,394.416,135.732,380.523,150.433,365.718z M792.007,209.151
			c3.763-4.11,7.466-6.674,9.34-9.713c-17.7-17.698-35.074-35.071-52.141-52.136c-17.212,17.217-34.856,34.866-52.65,52.666
			c2.281,2.793,4.976,5.649,8.726,8.44c14.239-14.324,28.39-28.56,43.091-43.349C763.037,179.878,777.271,194.261,792.007,209.151z
			 M790.703,40.08c-13.938,14.334-27.577,28.36-41.825,43.012c-14.447-14.618-28.31-28.644-42.271-42.771
			c-3.64,2.784-6.553,5.356-8.152,7.884c17.82,17.809,35.286,35.264,52.131,52.098c16.322-16.316,33.123-33.112,50.142-50.126
			C798.402,47.01,795.055,44.087,790.703,40.08z M299.473,446.922c18.062,18.055,35.692,35.678,52.545,52.525
			c16.468-16.454,33.236-33.208,50.157-50.115c-2.78-2.727-5.585-6.396-10.518-9.604c-13.582,13.964-26.996,27.754-41.192,42.349
			c-14.461-14.667-28.529-28.935-42.806-43.415C304.604,441.743,301.934,444.438,299.473,446.922z M1045.786,470.028
			c-17.41,17.408-34.639,34.634-50.879,50.871c17.052,17.051,34.646,34.645,52.374,52.372c2.254-2.113,5.268-4.663,8.376-9.017
			c-14.622-14.478-29.227-28.937-44.634-44.192c14.292-14.192,28.412-28.214,42.355-42.059
			C1050.496,474.976,1047.778,472.12,1045.786,470.028z M307.218,209.709c14.267-14.34,28.543-28.691,43.476-43.701
			c14.247,14.648,28.142,28.934,42.317,43.508c3.717-4.102,7.518-6.793,9.731-10.316c-17.357-17.344-34.42-34.395-50.6-50.563
			c-17.55,17.55-35.382,35.382-53.323,53.323C300.846,204.176,303.287,207.092,307.218,209.709z M600.87,399.169
			c-17.655-17.645-34.881-34.863-51.415-51.388c-17.018,17.011-34.525,34.512-52.218,52.199c2.038,2.667,4.704,5.529,8.69,8.332
			c14.095-14.165,28.144-28.284,42.575-42.786c14.235,14.425,28.333,28.711,42.486,43.053
			C595.379,405.363,598.349,402.065,600.87,399.169z M704.057,606.642c14.262-14.353,28.517-28.699,43.442-43.72
			c14.401,14.619,28.354,28.785,42.493,43.139c4.026-3.518,7.396-6.552,9.776-9.74c-17.47-17.469-34.509-34.505-50.7-50.695
			c-17.523,17.526-35.341,35.348-53.282,53.293C697.803,601.185,700.294,604.045,704.057,606.642z M250.784,73.375
			c-17.528,17.526-34.777,34.772-51.668,51.662c16.999,17.001,34.373,34.376,52.054,52.057c2.572-2.408,5.851-4.858,8.849-9.913
			c-14.376-13.947-28.887-28.025-44.367-43.042c14.668-14.466,28.937-28.539,43.125-42.531
			C255.929,78.673,253.281,75.946,250.784,73.375z M647.537,471.174c-17.412,17.414-34.527,34.531-50.674,50.679
			c17.061,17.062,34.642,34.645,51.74,51.744c2.255-2.117,5.12-4.807,8.975-8.426c-14.534-14.519-29.063-29.033-44.489-44.443
			c13.971-13.935,27.938-27.866,42.173-42.064C652.45,475.946,650.136,472.707,647.537,471.174z M748.237,258.552
			c-14.419-14.549-28.801-29.061-43.27-43.66c-3.266,3.195-5.975,5.847-8.008,7.836c18.033,18.056,35.845,35.892,53.317,53.386
			c16.673-16.681,33.812-33.829,51.157-51.182c-2.751-2.861-5.612-6.449-10.261-9.52
			C776.863,229.789,762.688,244.032,748.237,258.552z M308.023,432.581c13.989-14.106,27.76-27.994,42.61-42.969
			c14.184,14.614,28.249,29.104,41.88,43.147c3.631-3.538,6.786-6.613,9.049-8.819c-17.058-17.083-34.166-34.216-50.953-51.028
			c-16.626,16.64-33.755,33.784-50.834,50.878C302.055,426.221,304.655,428.992,308.023,432.581z M458.973,367.076
			c-14.713-14.631-29.162-28.999-44.075-43.829c14.398-14.175,28.729-28.283,43.15-42.481c-2.776-3.42-5.48-6.258-8.183-8.294
			c-17.453,17.454-34.694,34.695-51.439,51.441c16.959,16.994,34.295,34.367,51.848,51.956
			C452.924,373.968,455.461,371.179,458.973,367.076z M1056.456,166.863c-14.913-14.859-29.491-29.384-44.632-44.47
			c14.159-14.019,28.297-28.016,42.572-42.151c-2.785-3.489-5.3-6.46-8.157-8.168c-17.295,17.314-34.301,34.34-50.717,50.775
			c17.19,17.194,34.775,34.781,52.565,52.575C1050.29,173.171,1052.95,170.45,1056.456,166.863z M847.965,271.405
			c-17.501,17.503-34.744,34.747-51.59,51.595c16.899,16.945,34.235,34.327,51.875,52.016c2.549-2.289,5.541-4.794,8.376-8.914
			c-14.498-14.458-28.928-28.849-44.312-44.19c14.557-14.29,28.971-28.439,43.128-42.335
			C852.701,276.58,850.145,273.787,847.965,271.405z M424.81,471.813c-17.411,17.413-34.219,34.224-50.671,50.678
			c17.07,17.072,34.454,34.458,52.099,52.105c2.404-2.479,5.596-4.821,7.977-8.586c-14.467-14.377-28.84-28.662-44.033-43.761
			c14.577-14.214,28.694-27.979,42.806-41.739C429.941,477.27,427.346,474.511,424.81,471.813z M773.642,123.334
			c17.048,17.056,34.402,34.419,51.667,51.692c2.287-2.104,5.072-4.668,8.665-7.974c-14.981-14.551-29.599-28.749-44.769-43.484
			c14.702-14.51,28.653-28.278,42.869-42.308c-3.025-2.998-5.433-6.123-8.317-8.033C806.706,90.275,789.901,107.077,773.642,123.334
			z M375.358,124.364c16.757,16.745,33.897,33.873,51.245,51.208c2.517-2.091,5.467-4.68,8.537-9.313
			c-14.147-13.798-28.38-27.68-43.305-42.236c14.401-14.127,28.384-27.845,42.304-41.501c-3.181-3.251-5.942-6.072-8.366-8.549
			C408.84,90.898,391.8,107.93,375.358,124.364z M822.766,470.906c-16.959,16.969-33.991,34.012-50.372,50.403
			c16.756,16.772,33.88,33.913,51.274,51.323c2.281-2.328,5.489-4.663,8.504-9.635c-14.141-13.612-28.463-27.397-43.545-41.913
			c14.54-14.28,28.515-28.005,42.718-41.954C828.144,476.061,825.295,473.33,822.766,470.906z M226.997,273.101
			c-17.121,17.113-34.041,34.025-50.379,50.355c16.572,16.57,33.692,33.69,51.064,51.06c2.178-2.422,5.555-4.57,8.008-9.208
			c-14.073-13.906-28.208-27.874-43.314-42.801c14.163-14.13,28.122-28.057,42.239-42.14
			C232.023,277.976,229.792,274.841,226.997,273.101z M1031.233,365.563c-14.221-14.13-28.34-28.159-43.325-43.048
			c14.741-14.719,28.782-28.738,42.888-42.823c-2.716-2.838-5.089-5.82-7.908-7.632c-17.108,17.135-34.007,34.06-50.229,50.307
			c16.611,16.618,33.724,33.738,51.011,51.033C1026.055,371.39,1028.804,368.805,1031.233,365.563z M634.285,365.652
			c-14.566-14.514-28.807-28.705-43.951-43.796c14.017-13.999,27.845-27.809,41.728-41.675c-2.625-2.644-5.282-5.319-7.566-7.619
			c-16.944,16.949-33.724,33.734-49.877,49.892c16.752,16.752,34.009,34.011,51.441,51.444
			C628.637,372.043,631.175,369.235,634.285,365.652z M650.252,74.529c-17.365,17.398-34.42,34.486-50.767,50.865
			c16.464,16.461,33.585,33.577,50.265,50.254c2.342-2.048,5.181-4.531,8.865-7.753c-14.669-14.512-29.056-28.746-44.314-43.842
			c14.297-14.208,28.512-28.334,42.82-42.552C654.671,78.64,652.291,75.928,650.252,74.529z M251.092,473.413
			c-17.454,17.456-34.445,34.448-51.027,51.031c16.58,16.559,33.726,33.684,51.033,50.969c2.337-2.295,5.041-4.95,8.294-8.145
			c-14.602-14.548-28.943-28.836-43.963-43.8c14.414-14.232,28.679-28.317,42.997-42.454
			C255.849,477.647,253.305,475.098,251.092,473.413z M278.933,436.018c-13.237-13.273-26.326-26.396-38.823-38.926
			c-4.961,4.939-10.438,10.39-15.174,15.106c12.773,12.757,25.896,25.864,38.925,38.876
			C268.727,446.213,274.129,440.817,278.933,436.018z M623,411.061c12.827,12.831,25.482,25.491,37.425,37.439
			c4.976-4.903,10.478-10.324,15.197-14.975c-12.333-12.391-24.962-25.079-37.458-37.633
			C633.194,400.863,627.796,406.263,623,411.061z M42.215,198.838c-5.116,5.083-10.605,10.536-15.693,15.592
			c12.251,12.281,24.802,24.862,37.059,37.148c5.156-5.172,10.624-10.657,15.637-15.686
			C67.05,223.708,54.509,211.149,42.215,198.838z M1073.486,433.078c-12.578-12.582-25.131-25.14-37.335-37.347
			c-4.896,4.928-10.218,10.284-14.877,14.973c12.328,12.329,24.99,24.992,37.214,37.217
			C1063.296,443.162,1068.579,437.934,1073.486,433.078z M462.48,249.896c4.783-4.742,9.992-9.906,14.566-14.441
			c-12.445-12.472-25.315-25.37-37.501-37.583c-4.835,4.744-10.067,9.877-14.702,14.426
			C437.424,224.867,450.313,237.742,462.48,249.896z M823.838,211.992c12.317,12.349,24.913,24.977,36.96,37.055
			c4.671-4.684,9.77-9.797,14.461-14.501c-12.164-12.14-24.716-24.667-36.94-36.868
			C833.542,202.399,828.397,207.485,823.838,211.992z M821.704,608.507c12.692,12.683,25.347,25.33,37.35,37.325
			c4.575-4.483,9.743-9.547,14.02-13.738c-12.36-12.398-24.991-25.069-37.444-37.561
			C831.146,599.032,826.131,604.064,821.704,608.507z M79.064,412.118c-4.639-4.87-9.415-9.884-13.421-14.089
			c-13.293,13.291-26.64,26.637-39.32,39.314c4.207,4.458,8.952,9.487,13.364,14.162C52.909,438.281,66.167,425.019,79.064,412.118z
			 M1061.195,197.397c-13.238,13.235-26.368,26.361-38.785,38.774c4.283,4.507,9.037,9.511,13.428,14.132
			c13.037-13.067,26.148-26.206,39.068-39.156C1070.339,206.566,1065.43,201.643,1061.195,197.397z M264.887,198.711
			c-13.197,13.203-26.184,26.196-38.405,38.422c4.269,4.495,9.02,9.497,13.025,13.714c12.854-12.859,25.841-25.85,38.752-38.765
			C273.976,207.799,269.182,203.005,264.887,198.711z M636.888,250.621c13.095-13.09,26.238-26.228,38.977-38.963
			c-4.267-4.356-8.989-9.177-12.908-13.178c-13.02,12.981-26.174,26.097-39.285,39.17
			C627.944,241.843,632.672,246.483,636.888,250.621z M424.483,436.263c4.454,4.589,9.151,9.427,13.475,13.88
			c12.918-12.936,26.027-26.064,38.502-38.556c-4.339-4.512-9.006-9.365-13.419-13.954
			C450.144,410.552,437.125,423.597,424.483,436.263z M835.612,449.287c13.02-13.021,26.23-26.233,38.762-38.767
			c-4.259-4.412-8.94-9.261-13.361-13.84c-12.972,12.973-26.108,26.112-39.01,39.015
			C826.488,440.175,831.258,444.938,835.612,449.287z M51.909,383.437c-13.683,13.716-26.964,27.03-40.174,40.272
			c3.009,3.238,6.249,6.724,9.027,9.713c13.675-13.625,27.086-26.988,40.623-40.475C58.405,389.958,55.135,386.676,51.909,383.437z
			 M609.193,25.288c13.704,13.746,26.925,27.007,40.29,40.412c2.774-2.763,6.028-6.002,8.519-8.482
			c-13.546-13.553-26.893-26.907-40.054-40.075C615.196,19.703,611.928,22.743,609.193,25.288z M1047.076,581.481
			c-13.605,13.579-26.833,26.781-39.897,39.82c2.701,2.886,5.858,6.258,8.231,8.794c13.508-13.492,26.759-26.727,40.246-40.198
			C1052.982,587.273,1049.8,584.152,1047.076,581.481z M658.942,193.629c-3.207-3.353-6.199-6.854-9.385-9.211
			c-13.41,13.415-26.528,26.538-38.962,38.976c2.841,3.113,6.026,6.602,8.846,9.692
			C632.481,220.061,645.524,207.032,658.942,193.629z M459.699,393.038c-3.487-3.091-6.156-6.929-9.262-8.858
			c-13.461,13.453-26.572,26.555-39.833,39.807c2.786,2.738,5.619,6.392,9.243,8.794
			C433.149,419.516,446.198,406.502,459.699,393.038z M817.173,431.677c13.426-13.406,26.641-26.603,40.003-39.946
			c-2.719-2.895-5.71-6.407-8.449-8.377c-13.518,13.515-26.706,26.7-40.038,40.03C811.125,426.018,814.061,429.344,817.173,431.677z
			 M259.259,456.058c-13.284-13.281-26.425-26.418-39.802-39.791c-3.193,2.456-6.305,5.833-8.941,8.848
			c13.326,13.295,26.469,26.408,39.815,39.723C253.521,462.389,256.593,458.93,259.259,456.058z M648.921,582.429
			c-13.391,13.392-26.53,26.531-39.879,39.881c2.463,3.206,5.827,6.345,8.751,8.872c13.366-13.357,26.534-26.516,40.039-40.013
			C655.035,588.233,652.108,584.721,648.921,582.429z M1016.368,231.826c13.402-13.4,26.622-26.618,39.502-39.496
			c-2.452-2.717-5.432-6.02-8.062-8.935c-13.347,13.354-26.466,26.479-39.816,39.835
			C1010.393,226.506,1013.867,229.543,1016.368,231.826z M410.947,225c13.148,13.128,26.164,26.124,38.671,38.611
			c2.801-2.454,6.146-5.386,8.985-7.875c-13.24-13.221-26.249-26.211-39.239-39.182C416.688,219.24,413.556,222.383,410.947,225z
			 M211.083,622.377c2.971,3.452,6.104,6.802,8.875,8.955c13.273-13.264,26.264-26.247,39.377-39.351
			c-2.673-2.695-5.572-6.307-9.117-8.748C237.146,596.308,224.326,609.131,211.083,622.377z M251.298,184.867
			c-13.328,13.316-26.227,26.203-39.197,39.161c2.901,2.884,6.16,6.124,8.75,8.699c12.979-12.976,26.069-26.063,39.288-39.28
			C257.552,190.672,254.627,187.316,251.298,184.867z M251.148,65.715c2.851-2.765,6.464-5.594,8.452-8.607
			c-13.085-13.086-25.834-25.835-38.757-38.76c-2.845,2.366-6.041,5.452-8.447,8.509C225.334,39.83,238.089,52.62,251.148,65.715z
			 M59.428,257.074c-13.067-13.101-25.678-25.746-38.448-38.549c-2.702,2.609-6.235,5.55-8.213,8.315
			c13.032,13.034,25.671,25.674,38.051,38.055C53.55,262.414,56.85,259.416,59.428,257.074z M847.925,263.603
			c2.864-2.933,6.477-5.786,8.45-8.591c-12.986-12.988-25.609-25.612-37.999-38.004c-2.678,2.482-5.939,5.505-8.84,8.193
			C822.367,238.036,835.019,250.692,847.925,263.603z M1046.153,64.109c3.438-2.927,6.787-6.012,8.988-8.901
			c-12.953-12.98-25.598-25.651-38.363-38.441c-2.81,2.897-6.443,5.758-8.844,9.223
			C1020.793,38.815,1033.267,51.257,1046.153,64.109z M1007.125,423.607c12.828,12.885,25.423,25.536,38.252,38.422
			c3.344-2.401,6.365-5.871,9.112-8.905c-12.914-12.903-25.663-25.642-38.55-38.518
			C1012.966,417.398,1009.454,420.399,1007.125,423.607z M647.56,463.073c3.023-2.845,6.513-5.784,8.985-9.191
			c-12.884-12.907-25.547-25.593-38.372-38.441c-3.176,2.899-6.656,5.9-9.03,9.204C621.919,437.424,634.453,449.962,647.56,463.073z
			 M51.207,463.718c13.575-13.527,26.916-26.822,40.472-40.331c-2.207-2.752-4.967-5.684-7.52-7.568
			c-13.69,13.632-27.059,26.946-40.592,40.422C45.91,458.813,48.468,461.802,51.207,463.718z M879.953,414.324
			c-13.646,13.659-26.831,26.856-40.139,40.178c2.243,2.353,4.718,5.428,7.352,7.174c13.5-13.534,26.672-26.739,39.913-40.013
			C884.897,419.416,882.251,416.691,879.953,414.324z M482.512,16.987c-13.622,13.615-26.751,26.738-40.051,40.032
			c2.458,2.76,4.98,5.977,8.214,7.886c13.409-13.407,26.542-26.536,39.847-39.838C488.004,22.527,485.228,19.727,482.512,16.987z
			 M481.292,415.039c-13.493,13.426-26.58,26.448-39.826,39.629c2.633,2.911,5.161,6.121,8.436,8.12
			c13.331-13.298,26.403-26.337,39.624-39.525C487.21,420.299,484.415,417.546,481.292,415.039z M1047.539,262.657
			c13.283-13.332,26.409-26.507,39.682-39.829c-2.167-2.513-4.825-5.415-7.602-7.501c-13.393,13.398-26.54,26.55-39.656,39.671
			C1042.209,257.268,1044.882,259.971,1047.539,262.657z M681.242,215.966c-13.331,13.32-26.482,26.46-39.825,39.792
			c2.106,2.658,4.886,5.431,7.289,7.338c13.342-13.338,26.487-26.48,39.824-39.813C686.161,220.905,683.389,218.121,681.242,215.966
			z M840.9,56.186c2.3,2.334,4.681,5.718,7.98,7.547c13.369-13.334,26.435-26.365,39.498-39.394
			c-2.602-2.665-5.352-5.481-7.74-7.927C867.303,29.759,854.169,42.905,840.9,56.186z M244.286,391.369
			c13.561,13.554,26.663,26.649,39.26,39.239c2.425-2.328,5.245-5.036,7.232-6.944c-13.01-13.046-26.074-26.148-39.13-39.241
			C249.413,386.533,246.684,389.107,244.286,391.369z M91.628,623.999c-13.554-13.588-26.657-26.723-40.049-40.148
			c-2.535,2.188-5.51,4.72-7.327,7.377c13.511,13.474,26.731,26.658,40.054,39.946C86.531,628.994,89.248,626.332,91.628,623.999z
			 M282.974,216.696c-13.137,13.128-26.171,26.154-38.831,38.805c2.396,2.627,5.041,5.527,7.186,7.879
			c13.122-13.117,26.121-26.112,39.175-39.161C288.259,221.976,285.586,219.305,282.974,216.696z M52.19,64.437
			c13.251-13.244,26.253-26.24,39.422-39.402c-2.11-2.538-4.706-5.477-7.46-7.369C70.886,30.931,57.861,43.954,44.891,56.924
			C47.233,59.334,49.879,62.057,52.19,64.437z M482.524,231.805c2.809-2.249,5.602-5.024,7.433-7.34
			c-13.18-13.234-26.159-26.267-39.418-39.58c-2.49,2.22-5.487,4.734-7.425,7.536C456.314,205.613,469.22,218.51,482.524,231.805z
			 M681.147,429.464c2.574-2.31,5.595-4.824,7.348-7.467c-12.95-12.987-25.599-25.671-37.904-38.01
			c-2.503,2.288-5.393,4.929-7.8,7.13C655.613,403.936,668.297,416.617,681.147,429.464z M1040.679,390.14
			c12.968,12.964,25.611,25.603,38.399,38.388c2.291-1.945,5.142-4.416,6.858-7.03c-12.901-12.893-25.532-25.517-38.211-38.188
			C1045.475,385.492,1042.776,388.108,1040.679,390.14z M887.947,223.216c-12.779-12.769-25.339-25.318-38.127-38.096
			c-2.762,1.896-5.402,4.766-7.153,6.951c12.949,12.945,25.584,25.577,38.35,38.34C883.246,228.426,886.145,225.985,887.947,223.216
			z M488.975,622.155c-12.775-12.768-25.335-25.32-38.104-38.081c-2.8,1.982-5.499,4.794-7.17,6.965
			c12.965,12.958,25.604,25.59,38.36,38.339C484.244,627.381,487.195,624.984,488.975,622.155z M91.869,224.406
			c-12.847-12.847-25.458-25.457-38.354-38.353c-2.34,2.295-5.522,4.606-6.929,6.989c13.019,13.027,25.632,25.649,38.389,38.413
			C87.275,229.489,90.08,226.971,91.869,224.406z M840.489,588.899c13.168,13.167,25.819,25.816,38.61,38.607
			c2.215-2.087,5.474-4.376,7.016-7.41c-12.904-12.889-25.482-25.45-38.373-38.326C845.057,583.868,842.212,586.541,840.489,588.899
			z M227.645,382.713c-5.82,5.771-11.392,11.295-17.119,16.972c2.769,2.925,5.688,6.452,8.905,8.679
			c5.792-5.767,11.271-11.222,16.946-16.873C233.72,388.276,230.513,385.032,227.645,382.713z M38.536,193.44
			c-3.249-3.152-6.029-6.829-9.056-8.788c-5.908,5.849-11.394,11.281-17.046,16.878c2.725,3.09,5.792,6.456,9.067,8.959
			C27.249,204.737,32.713,199.269,38.536,193.44z M625.896,382.143c-5.683,5.687-11.145,11.152-16.886,16.897
			c2.885,2.849,5.63,6.551,8.694,8.468c5.879-5.762,11.384-11.158,17.026-16.687C632.008,387.754,629.064,384.434,625.896,382.143z
			 M1015.765,406.61c5.614-5.624,10.956-10.976,16.51-16.539c-3.077-2.594-5.643-6.532-8.982-8.506
			c-5.623,5.61-10.897,10.87-16.258,16.219C1009.855,400.635,1012.971,403.784,1015.765,406.61z M419.116,208.1
			c5.583-5.609,10.775-10.826,16.07-16.145c-2.731-2.725-5.599-6.353-8.982-8.641c-5.413,5.382-10.553,10.491-15.88,15.788
			C412.903,202.505,416.332,205.564,419.116,208.1z M823.63,580.509c-5.518,5.481-10.731,10.657-15.588,15.481
			c2.776,2.962,5.908,6.303,8.477,9.044c5.295-5.263,10.517-10.454,15.279-15.187C829.108,586.773,826.087,583.319,823.63,580.509z
			 M688.862,444.887c-2.458-2.649-4.994-5.659-7.521-7.446c-5.741,5.739-11.266,11.263-16.992,16.988
			c2.365,2.269,4.686,5.494,7.549,7.232C677.643,455.98,683.131,450.554,688.862,444.887z M418.845,607.195
			c5.71-5.679,10.823-10.764,16.116-16.028c-2.506-3.117-5.576-6.275-8.306-8.38c-5.489,5.456-10.712,10.648-15.937,15.842
			C413.28,601.33,416.223,604.432,418.845,607.195z M818.237,207.966c5.321-5.304,10.436-10.403,15.754-15.705
			c-2.456-3.22-5.613-6.304-8.784-8.834c-5.364,5.317-10.522,10.43-15.994,15.854C812.179,202.215,814.934,205.7,818.237,207.966z
			 M21.451,440.734c-3.543,3.372-6.865,6.534-9.959,9.479c5.188,5.153,10.215,10.146,15.5,15.395
			c2.837-3.32,6.874-5.985,9.235-10.008C31.192,450.535,26.422,445.736,21.451,440.734z M420.065,41.997
			c-3.214,3.162-6.465,6.36-9.304,9.154c5.195,5.146,10.195,10.1,15.318,15.175c2.982-2.839,6.485-5.83,9.004-9.265
			C430.036,51.998,425.176,47.124,420.065,41.997z M1022.795,264.561c3.171-3.361,6.899-6.136,9.206-9.708
			c-5.148-5.097-9.964-9.864-14.822-14.673c-3.012,3.033-6.249,6.293-9.401,9.466
			C1012.556,254.392,1017.496,259.298,1022.795,264.561z M211.888,250.211c4.93,4.971,9.916,9.999,15.026,15.15
			c3.035-3.033,6.669-5.913,8.774-9.023c-5.187-5.211-10.044-10.091-15.115-15.187C217.776,244.067,214.689,247.288,211.888,250.211
			z M1069.642,460.708c5.763-5.822,11.065-11.18,16.088-16.255c-2.303-2.466-4.987-5.339-7.228-7.739
			c-5.534,5.507-10.887,10.835-16.416,16.338C1064.134,455.889,1066.99,458.574,1069.642,460.708z M610.147,249.603
			c4.755,5.064,9.446,10.059,14.36,15.291c2.997-3.31,6.736-6.027,8.415-8.541c-4.974-5.431-9.497-10.369-14.225-15.531
			C615.621,243.981,612.524,247.162,610.147,249.603z M822.602,463.817c3.497-3.402,7.037-6.361,9.439-9.701
			c-4.925-5.021-9.623-9.811-13.902-14.174c-3.189,3.107-6.538,6.371-9.841,9.59C812.936,454.164,817.6,458.822,822.602,463.817z
			 M291.066,48.891c-2.7-2.854-5.405-5.712-7.407-7.828c-5.327,5.283-10.553,10.465-15.497,15.368
			c2.289,2.454,4.969,5.329,7.429,7.967C280.92,59.059,286.039,53.93,291.066,48.891z M75.145,264.179
			c5.773-5.82,11.208-11.299,16.822-16.959c-2.106-2.794-4.746-5.636-7.471-7.538c-5.783,5.734-11.279,11.184-17.001,16.857
			C69.591,259.224,72.293,261.827,75.145,264.179z M832.728,56.269c-5.012-5.098-9.845-10.013-14.419-14.665
			c-3.064,3.029-6.275,6.204-9.06,8.956c4.711,4.847,9.55,9.827,14.133,14.543C826.539,62.12,829.765,59.069,832.728,56.269z
			 M433.813,455.167c-4.971-4.88-9.784-9.604-14.257-13.995c-2.869,2.701-6.1,5.744-9.131,8.598
			c4.871,4.803,9.682,9.546,14.086,13.888C427.398,461.023,430.684,458.023,433.813,455.167z M291.588,446.659
			c-2.358-2.618-4.724-5.542-7.406-7.204c-5.743,5.713-11.219,11.16-16.917,16.827c2.078,2.664,4.725,5.288,7.372,7.39
			C280.322,457.966,285.781,452.486,291.588,446.659z M482.723,240.279c-5.21,5.22-10.418,10.438-15.77,15.8
			c2.262,1.993,4.399,5.214,7.362,6.937c5.372-5.367,10.495-10.484,15.741-15.725C487.595,244.937,484.869,242.331,482.723,240.279z
			 M864.449,254.45c2.563,2.751,4.958,5.682,7.879,7.58c5.28-5.28,10.374-10.373,15.673-15.672
			c-2.017-2.968-4.852-5.605-7.682-7.838C874.984,243.876,869.883,248.996,864.449,254.45z M268.349,194.034
			c4.929,4.983,9.763,9.869,14.755,14.916c2.804-2.17,5.568-4.935,7.793-7.785c-5.059-5.061-9.921-9.925-14.871-14.876
			C273.611,188.725,270.86,191.501,268.349,194.034z M683.1,41.24c-5.714,5.787-11.001,11.142-15.998,16.203
			c1.944,2.072,4.413,4.703,6.532,6.962c5.406-5.408,10.749-10.752,16.262-16.267C688.048,45.526,685.433,43.045,683.1,41.24z
			 M673.564,583.308c-3.001,2.71-6.178,5.294-8.054,8.19c4.967,5.003,9.624,9.693,14.456,14.558c2.876-2.404,6.048-4.958,7.9-8.132
			C682.943,592.893,678.322,588.171,673.564,583.308z M1087.174,199.985c-5.191-5.153-10.183-10.108-14.612-14.505
			c-2.485,2.322-5.331,4.98-7.637,7.135c4.791,5.003,9.557,9.98,14.476,15.118C1082.133,205.011,1084.893,202.259,1087.174,199.985z
			 M69.117,392.642c5.317,5.349,10.171,10.233,15.294,15.388c2.389-2.591,5.764-4.716,7.093-7.346
			c-5.185-5.424-9.954-10.414-14.868-15.555C73.8,387.39,71.125,390.018,69.117,392.642z M865.036,391.899
			c5.14,5.067,9.918,9.777,14.815,14.604c2.607-2.285,5.494-4.906,7.402-7.438c-4.957-5.094-9.64-9.906-14.25-14.643
			C870.395,386.869,867.665,389.432,865.036,391.899z M481.665,407.53c2.603-2.598,5.997-4.883,7.187-7.131
			c-5.113-5.513-9.582-10.332-14.144-15.25c-2.834,2.49-5.675,4.982-7.687,7.89C471.876,397.843,476.564,402.482,481.665,407.53z
			 M289.747,599.281c-4.944-5-9.691-9.801-14.575-14.739c-2.731,2.321-5.581,4.95-7.344,7.273c4.976,5.257,9.596,10.138,14.102,14.9
			C284.511,604.26,287.118,601.781,289.747,599.281z M667.281,192.723c4.756,5.134,9.33,10.073,14.125,15.25
			c2.366-2.837,5.764-4.768,7.414-8.144c-4.903-4.904-9.598-9.6-14.529-14.532C671.746,187.993,669.152,190.741,667.281,192.723z
			 M994.197,12.541c3.435,3.627,6.481,6.843,9.682,10.224c3.845-3.129,7.076-6.363,10.112-10.122
			c-3.222-3.52-6.175-7.014-9.839-9.573C1000.688,6.365,997.463,9.433,994.197,12.541z M1002.928,624.02
			c-3.676,2.863-6.91,6.264-10.128,10.114c3.199,3.796,6.444,7.181,10.297,10.217c3.642-3.542,7.186-6.474,10.023-10.465
			C1009.703,630.579,1006.5,627.477,1002.928,624.02z M615.153,635.168c-3.617-3.764-6.533-7.314-10.469-10.039
			c-3.426,3.39-7.025,6.267-9.802,10.351c3.595,3.165,6.236,7.001,10.324,9.583C608.526,641.76,611.669,638.633,615.153,635.168z
			 M615.249,411.822c-3.56-3.705-6.447-7.268-10.415-9.957c-3.538,3.245-6.953,6.244-9.891,10.171
			c3.594,3.289,6.297,7.049,10.305,9.663C608.554,418.434,611.702,415.326,615.249,411.822z M604.992,2.636
			c-3.677,3.546-7.185,6.524-10.038,10.393c3.418,3.536,6.301,7.133,10.283,9.795c3.472-3.456,7.096-6.354,9.811-10.324
			C611.958,8.953,608.906,5.72,604.992,2.636z M407.056,27.82c-3.792,3.607-7.278,6.591-10.142,10.466
			c3.101,3.616,6.176,6.955,10.209,9.996c3.319-3.579,7.16-6.365,9.741-10.37C413.571,34.522,410.488,31.351,407.056,27.82z
			 M1013.091,410.486c-3.285-3.473-6.133-7.094-10.198-9.679c-3.59,3.288-7.021,6.335-9.927,10.155
			c3.31,3.599,6.271,7.106,10.193,9.845C1006.708,417.436,1010.241,414.45,1013.091,410.486z M616.105,237.408
			c-3.193-3.94-6.5-7.285-10.358-10.359c-3.582,3.206-6.976,6.243-9.333,9.376c3.515,3.652,6.757,7.02,9.962,10.35
			C609.569,243.702,612.755,240.634,616.105,237.408z M1013.964,236.073c-3.316-3.65-6.333-7.089-10.192-9.932
			c-3.526,3.266-7.003,6.246-9.806,10.137c3.245,3.529,6.268,6.95,9.833,9.648C1007.235,242.596,1010.418,239.511,1013.964,236.073z
			 M197.965,237.099c3.028,3.722,6.255,6.925,9.68,9.744c3.491-3.305,6.795-6.433,10.268-9.721
			c-3.032-3.695-6.264-6.912-9.977-9.982C204.223,230.163,201.029,233.403,197.965,237.099z M207.408,625.681
			c-3.935,2.82-6.903,6.336-10.204,9.827c3.486,3.489,6.844,6.85,10.332,10.341c3.507-3.283,7.018-6.248,9.818-10.19
			C214.38,631.893,211.139,628.686,207.408,625.681z M218.495,14.238c-3.165-3.716-6.365-7.138-10.233-10.09
			c-3.42,3.303-6.826,6.163-9.643,10.064c3.069,3.766,6.205,7.215,10.231,9.983C212.402,21.016,215.718,18.092,218.495,14.238z
			 M814.484,435.405c-3.204-3.51-6.194-6.97-10.254-9.893c-3.352,3.509-7.039,6.284-9.684,10.332
			c3.072,3.714,6.214,7.026,9.969,9.93C808.006,442.393,811.532,439.392,814.484,435.405z M206.605,401.995
			c-3.633,3.565-7.193,6.52-10.12,10.596c3.361,3.33,6.124,7.009,10.207,9.609c3.54-3.252,7.109-6.138,9.704-10.158
			C213.538,408.275,210.239,405.309,206.605,401.995z M803.685,619.228c3.647-3.091,7.075-6.071,9.742-10.012
			c-3.082-3.788-6.366-6.986-10.02-10.112c-3.491,3.231-7.025,6.162-9.751,10.162C796.687,613.005,799.84,616.294,803.685,619.228z
			 M406.472,201.993c-3.64,3.479-7.142,6.439-9.936,10.3c3.378,3.689,6.279,7.236,10.274,9.876c3.611-3.014,6.783-6.09,9.667-9.748
			C413.682,208.508,410.134,205.549,406.472,201.993z M416.45,436.933c-3.56-3.78-6.462-7.333-10.431-10.026
			c-3.432,3.212-6.875,5.993-9.398,9.873c3.229,3.605,6.302,6.981,9.796,9.708C409.77,443.296,412.883,440.331,416.45,436.933z
			 M795.32,36.674c3.301,3.531,6.417,6.865,9.734,10.413c3.23-3.364,6.299-6.561,9.539-9.935c-2.892-3.369-6.005-6.741-9.874-9.636
			C800.99,30.284,797.983,33.499,795.32,36.674z M406.542,601.088c-3.429,3.49-7.118,6.474-9.975,10.448
			c3.283,3.538,6.066,6.976,9.938,9.517c3.496-3.338,7.075-6.231,9.747-10.216C413.314,607.187,410.171,604.088,406.542,601.088z
			 M795.505,212.147c3.234,3.838,6.241,7.081,10.117,9.978c3.212-3.482,6.993-6.17,9.599-10.314
			c-3.289-3.308-6.409-6.447-9.51-9.566C802.291,205.564,799.096,208.664,795.505,212.147z M1056.953,474.731
			c3.746-3.087,7.09-6.4,10.176-10.219c-2.753-3.308-5.357-6.403-9.055-8.711c-3.62,3.347-7.18,6.42-9.651,9.793
			C1051.448,468.834,1054.118,471.695,1056.953,474.731z M650.336,467.139c2.724,3.038,5.28,6.229,8.957,8.525
			c3.393-3.395,7.039-6.221,9.245-9.603c-2.942-3.249-5.577-6.16-8.432-9.313C656.805,460.26,653.762,463.496,650.336,467.139z
			 M262.82,172.027c-3.193,3.164-6.569,5.571-8.424,8.833c3.327,3.549,6.372,6.796,9.175,9.785c3.15-3.015,6.076-5.815,9.205-8.81
			C269.582,178.688,266.408,175.561,262.82,172.027z M262.437,78.391c3.808-3.521,7.211-6.374,9.872-10.247
			c-2.676-3.303-5.261-6.404-8.97-8.544c-3.491,3.146-6.849,6.053-9.499,9.779C256.707,72.384,259.422,75.23,262.437,78.391z
			 M651.598,578.752c3.318,3.448,6.229,7.138,10.25,9.711c3.171-3.136,6.202-5.477,8.438-8.973
			c-3.167-3.477-6.08-7.013-10.082-9.673C656.999,572.549,654.023,575.124,651.598,578.752z M1068.308,578.786
			c-2.902-3.867-6.229-6.998-10.109-10.209c-3.067,2.915-6.373,5.312-8.55,9.099c3.159,3.558,6.138,7.036,10.085,9.758
			C1063.02,584.843,1065.855,582.156,1068.308,578.786z M64.288,259.764c-3.684,3.24-7.131,6.273-10.835,9.531
			c2.797,3.433,5.504,6.204,8.888,8.935c3.47-3.52,7.221-6.408,9.941-10.492C69.465,264.926,66.813,262.281,64.288,259.764z
			 M73.998,381.253c-3.757-3.347-6.595-7.204-10.78-10.06c-2.671,3.18-6.062,5.347-8.127,8.906
			c3.427,3.544,6.392,7.084,10.451,10.003C68.282,387.235,70.9,384.496,73.998,381.253z M230.047,268.672
			c3.098,3.311,5.758,6.156,8.53,9.119c3.43-3.501,7.082-6.329,9.72-10.297c-2.737-3.149-5.19-6.202-8.487-8.227
			C236.425,262.527,233.234,265.601,230.047,268.672z M635.873,277.153c3.804-3.088,6.994-6.326,10.063-10.026
			c-2.651-3.155-5.219-6.079-8.457-8.239c-3.439,3.329-6.719,6.504-9.9,9.583C630.317,271.336,633.02,274.166,635.873,277.153z
			 M439.218,189.483c3.442-2.502,6.374-5.244,8.795-8.922c-3.614-3.2-6.286-7.048-9.993-9.396c-3.141,2.845-6.058,5.487-9.24,8.369
			C432.363,183.065,435.26,186.662,439.218,189.483z M453.002,379.938c3.434,3.701,6.417,7.175,9.794,9.618
			c3.034-2.93,5.834-5.633,8.764-8.462c-3.128-3.307-6.094-6.82-9.926-9.551C458.347,373.912,455.837,376.734,453.002,379.938z
			 M869.641,380.262c-3.006-3.399-6.097-6.78-9.908-9.684c-3.412,2.306-6.006,5.18-8.337,8.029
			c3.319,3.539,6.436,6.864,9.753,10.401C864.056,386.015,866.776,383.213,869.641,380.262z M1067.176,67.351
			c-2.935-3.228-5.568-6.123-8.438-9.28c-3.06,3.419-6.913,6.051-9.419,10.124c2.75,2.967,5.147,5.912,8.542,8.086
			C1061.62,73.522,1064.5,70.103,1067.176,67.351z M40.623,171.549c-2.746,3.718-6.574,5.602-8.24,9.534
			c3.59,3.122,6.089,6.908,10.1,9.23c3.093-2.724,6.185-5.12,8.087-8.367C47.29,178.518,44.232,175.321,40.623,171.549z
			 M30.953,70.305c2.86,2.805,5.656,5.547,8.582,8.417c3.408-3.202,6.886-6.201,9.723-10.036c-2.393-3.376-5.222-6.04-8.518-8.679
			C37.527,63.387,34.48,66.593,30.953,70.305z M30.102,578.681c3.229,3.512,6.224,7.009,10.132,9.777
			c3.45-2.35,6.063-5.255,8.73-8.472c-3.124-3.832-6.464-7.127-10.063-10.155C35.86,572.889,33.186,575.579,30.102,578.681z
			 M48.657,467.47c-3.139-3.081-5.477-6.299-9.053-8.476c-3.461,3.279-6.992,6.242-9.761,10.134c2.564,3.353,5.425,6.056,8.6,8.728
			C42.066,474.762,45.369,471.573,48.657,467.47z M1035.721,258.162c-3.533,3.071-6.852,6.186-9.891,10.028
			c2.979,2.924,5.775,5.668,8.7,8.54c3.412-3.214,6.895-6.212,9.706-10.016C1041.351,263.816,1038.61,261.063,1035.721,258.162z
			 M438.611,59.922c-3.549,3.493-7.13,6.405-9.832,10.263c2.844,3.266,5.484,6.188,8.801,8.651c3.495-3.283,7.006-6.29,9.836-10.177
			C444.503,65.768,441.726,63.013,438.611,59.922z M248.68,379.688c-3.091-3.413-6.112-6.838-9.999-9.716
			c-2.92,2.905-5.689,5.659-8.581,8.535c3.357,3.548,6.309,7.068,10.197,9.821C243.056,385.486,245.669,382.792,248.68,379.688z
			 M1045.009,378.893c-3.606-3.62-6.458-7.226-9.926-9.558c-3.081,2.952-5.886,5.64-8.803,8.436
			c3.288,3.377,6.244,6.88,10.017,9.649C1039.265,384.514,1041.947,381.89,1045.009,378.893z M845.07,577.899
			c-3.442-3.674-6.431-7.178-10.299-9.974c-3.318,2.561-6.038,5.405-8.771,8.699c3.289,3.565,6.433,7.083,10.247,9.967
			C839.675,583.953,842.295,581.228,845.07,577.899z M825.721,466.904c2.725,3.525,5.502,6.441,8.936,8.925
			c3.473-3.415,7.065-6.339,9.78-10.256c-2.595-3.305-5.316-6.127-8.182-8.294C832.631,460.591,829.251,463.679,825.721,466.904z
			 M647.342,379.568c-3.144-3.767-6.21-7.127-10.106-9.932c-3.179,2.674-6.196,5.143-8.335,8.664
			c3.273,3.321,6.388,6.482,9.607,9.747C641.928,385.76,644.353,382.86,647.342,379.568z M860.434,257.298
			c-3.254,3.783-7.263,6.372-9.3,9.92c2.972,3.393,5.355,6.113,7.867,8.981c3.954-3.245,7.199-6.421,10.179-10.192
			C866.763,262.825,864.072,260.233,860.434,257.298z M1060.615,189.44c3.28-2.872,6.367-5.276,8.463-8.893
			c-3.392-3.35-6.161-7.041-10.308-9.636c-2.716,2.989-5.896,5.157-7.958,8.629C1053.604,183.163,1056.843,186.19,1060.615,189.44z
			 M452.781,268.551c2.661,3.055,5.24,5.979,8.619,8.419c3.536-3.131,6.942-6.16,9.786-10.025c-2.714-3.122-5.095-6.217-8.702-8.236
			C458.938,261.701,455.73,264.74,452.781,268.551z M437.678,458.195c-3.534,3.151-6.951,6.138-9.618,9.859
			c2.93,3.004,5.654,5.797,8.098,8.303c3.43-3.219,6.651-6.243,10.012-9.398C443.716,463.512,440.784,460.932,437.678,458.195z
			 M889.924,623.062c-3.268,2.771-6.212,5.525-8.919,9.004c3.322,2.931,5.561,6.437,8.86,8.233c3.154-2.939,6.024-5.613,8.797-8.198
			C895.74,629.079,893.017,626.262,889.924,623.062z M835.593,77.756c3.292-3.318,6.861-6.202,9.664-10.177
			c-3.044-2.918-5.395-6.082-8.205-7.913c-3.469,3.3-6.661,6.337-9.742,9.268C830.061,71.865,832.745,74.724,835.593,77.756z
			 M447.549,579.625c-3.328-3.602-6.115-7.027-9.245-9.091c-3.089,3.043-5.854,5.767-8.715,8.585c3.03,2.967,5.74,6.522,9.601,9.045
			C442.33,585.67,445.038,583.083,447.549,579.625z M836.885,171.201c-2.953,2.914-5.731,5.657-8.622,8.51
			c3.154,3.354,6.063,6.699,9.994,9.643c2.844-2.907,6.106-5.129,8.244-9.086C843.351,177.298,840.241,174.366,836.885,171.201z
			 M263.732,589.093c3.052-2.886,5.671-5.362,8.459-7.999c-3.265-3.862-6.521-7.252-9.922-9.989
			c-3.045,2.864-5.675,5.338-8.463,7.96C256.827,582.924,260.12,586.099,263.732,589.093z M662.997,190.715
			c2.882-3.5,6.339-5.379,8.021-9.12c-3.44-3.307-6.246-7.013-10.255-9.634c-2.852,2.808-6.014,4.965-7.673,8.249
			C656.368,183.686,659.424,186.925,662.997,190.715z M261.705,477.367c3.755-3.025,7.052-6.357,9.949-9.87
			c-2.753-2.99-5.295-5.75-8.03-8.72c-3.706,3.611-7.304,6.663-10.159,10.507C256.081,472.486,258.499,475.138,261.705,477.367z
			 M660.403,78.213c3.71-3.458,7.052-6.572,10.513-9.799c-2.853-2.886-5.49-5.555-8.336-8.435
			c-3.714,3.253-7.112,6.492-10.219,10.362C655.058,73.315,657.384,76.067,660.403,78.213z M87.229,14.236
			c2.471,2.92,4.989,5.885,8.457,8.1c3.253-2.532,6.014-5.289,8.497-8.463c-2.913-2.883-5.67-5.611-8.612-8.522
			C92.996,8.093,90.317,10.946,87.229,14.236z M692.602,442.147c3.364-2.911,6.157-5.432,8.512-8.688
			c-2.462-3.388-5.281-6.255-8.766-8.71c-3.228,2.567-6.122,5.157-8.492,8.73C686.766,436.362,689.555,439.126,692.602,442.147z
			 M691.609,600.912c-2.919,3.346-6.423,5.613-8.577,9.436c2.893,2.737,5.16,5.812,8.717,8.098c2.976-2.79,6.219-5.259,8.435-8.882
			C697.778,606.377,695.052,603.784,691.609,600.912z M286.016,213.083c2.904,3.067,5.195,6.445,8.295,7.905
			c3.344-2.969,6.158-5.467,9.044-8.029c-3.056-3.091-5.788-5.855-8.728-8.828C291.839,207.029,289.119,209.857,286.016,213.083z
			 M294.919,28.346c-3.177,2.111-5.946,4.958-8.13,8.117c2.861,3.086,5.506,5.94,8.409,9.073c3.247-2.733,6.075-5.371,8.645-8.688
			C300.841,33.987,298.007,31.288,294.919,28.346z M891.02,418.878c3.193-2.961,5.975-5.542,8.892-8.247
			c-2.83-3.297-5.481-6.386-9.018-8.76c-3.132,2.567-5.855,5.153-8.203,8.333C885.005,413.703,887.986,416.256,891.02,418.878z
			 M95.85,420.314c3.159-2.584,6.178-5.048,8.253-8.572c-2.744-3.164-5.413-6.057-8.678-8.55c-3.033,2.762-6.007,5.325-8.412,8.67
			C89.804,415.02,92.315,418.042,95.85,420.314z M493.138,402.664c-3.277,3.063-6.259,5.437-8.387,8.835
			c2.604,3.159,5.158,6.145,7.731,7.805c3.181-2.963,6.033-5.619,8.409-7.833C498.441,408.686,495.932,405.838,493.138,402.664z
			 M104.464,635.143c-3.22-3.041-5.418-6.342-9.226-8.402c-2.85,2.89-6.047,5.237-8.236,8.79c2.688,3.06,5.216,6.045,8.696,8.39
			C98.536,641.078,101.218,638.393,104.464,635.143z M502.445,13.876c-2.894-3.188-5.536-6.099-8.319-9.165
			c-3.32,2.758-6.341,5.22-8.422,8.778c2.676,3.191,5.262,6.159,8.866,8.59C497.296,19.241,499.923,16.503,502.445,13.876z
			 M502.438,235.774c-2.925-3.114-5.483-5.838-8.214-8.746c-3.307,2.81-6.43,5.353-8.574,9.002c2.457,3.177,5.031,5.859,8.406,8.292
			C497.107,241.668,499.973,239.055,502.438,235.774z M96.143,244.336c3.118-3.126,6.555-5.359,7.918-8.384
			c-3.053-3.328-5.477-5.971-8.176-8.914c-2.857,2.967-6.039,5.265-8.192,8.814C90.096,239.014,92.772,241.619,96.143,244.336z
			 M900.491,234.692c-2.802-3.276-5.252-6.31-8.721-8.431c-2.964,2.695-5.832,5.14-8.077,8.448c2.279,3.351,5.081,6.003,8.334,8.469
			C895.221,240.719,897.837,238.06,900.491,234.692z M501.362,633.799c-2.304-3.446-5.172-6.039-8.368-8.618
			c-3.157,2.668-6.11,5.182-8.439,8.851c2.87,2.818,5.101,6.057,8.672,8.07C496.284,639.539,499.021,636.983,501.362,633.799z
			 M692.241,203.348c-2.592,2.63-5.256,5.334-8.075,8.195c2.777,3.205,5.29,6.412,8.648,8.343c2.883-2.771,5.482-5.271,8.263-7.945
			C698.105,209.051,695.285,206.308,692.241,203.348z M293.711,602.312c-2.985,2.788-5.752,5.372-8.655,8.083
			c2.795,3.346,5.472,6.394,9.004,8.787c3.072-2.593,5.914-5.013,7.853-8.053C299.001,607.998,296.32,605.116,293.711,602.312z
			 M295.712,426.972c-3.262,2.568-6.047,5.321-8.606,8.631c2.784,2.818,5.45,5.516,8.076,8.175c3.057-2.968,5.873-5.703,8.956-8.697
			C301.343,432.167,298.974,429.238,295.712,426.972z M900.889,12.599c-2.987-3.186-5.458-6.445-9.109-8.621
			c-2.871,2.777-5.924,5.026-7.89,8.469c2.704,3.067,5.222,6.058,8.333,8.147C895.202,17.846,897.981,15.283,900.889,12.599z
			 M694.144,45.257c2.836-2.953,6.052-5.229,8.153-8.792c-2.502-2.977-4.849-5.883-7.759-7.579c-3.122,2.8-5.903,5.295-8.839,7.929
			C688.201,40.111,690.822,42.733,694.144,45.257z"/>
	</g>
</g>
</svg>
